<?xml version="1.0" encoding="UTF-8" standalone="no"?>
<!DOCTYPE svg PUBLIC "-//W3C//DTD SVG 1.1//EN"
 "http://www.w3.org/Graphics/SVG/1.1/DTD/svg11.dtd">
<!-- Generated by graphviz version 16.1.0 (20260904.0139)
 -->
<!-- Title: run_afsctool Pages: 1 -->
<svg width="240pt" height="124pt"
 viewBox="0.00 0.00 240.00 124.00" xmlns="http://www.w3.org/2000/svg" xmlns:xlink="http://www.w3.org/1999/xlink">
<g id="graph0" class="graph" transform="scale(1 1) rotate(0) translate(4 119.5)">
<title>run_afsctool</title>
<!-- Node1 -->
<g id="Node000001" class="node">
<title>Node1</title>
<g id="a_Node000001"><a xlink:title=" ">
<polygon fill="#999999" stroke="#666666" points="69.25,-57.88 0,-57.88 0,-38.62 69.25,-38.62 69.25,-57.88"/>
<text xml:space="preserve" text-anchor="middle" x="34.62" y="-44.38" font-family="Helvetica,sans-Serif" font-size="10.00">run_afsctool</text>
</a>
</g>
</g>
<!-- Node1&#45;&gt;Node1 -->
<g id="edge5_Node000001_Node000001" class="edge">
<title>Node1&#45;&gt;Node1</title>
<g id="a_edge5_Node000001_Node000001"><a xlink:title=" ">
<path fill="none" stroke="#63b8ff" d="M13.63,-58.16C4.05,-66.77 11.05,-75.88 34.62,-75.88 47.52,-75.88 55.45,-73.15 58.43,-69.28"/>
<polygon fill="#63b8ff" stroke="#63b8ff" points="61.84,-68.47 55.99,-59.63 55.05,-70.18 61.84,-68.47"/>
</a>
</g>
</g>
<!-- Node2 -->
<g id="Node000002" class="node">
<title>Node2</title>
<g id="a_Node000002"><a xlink:href="compressor_8c.html#ab14d4ef2ee73a26eb652767bfe3d5c32" target="_top" xlink:title=" ">
<polygon fill="white" stroke="#666666" points="232.25,-97.5 105.25,-97.5 105.25,-67 232.25,-67 232.25,-97.5"/>
<text xml:space="preserve" text-anchor="start" x="113.25" y="-84" font-family="Helvetica,sans-Serif" font-size="10.00">compressor_get_physical</text>
<text xml:space="preserve" text-anchor="middle" x="168.75" y="-72.75" font-family="Helvetica,sans-Serif" font-size="10.00">_bytes</text>
</a>
</g>
</g>
<!-- Node1&#45;&gt;Node2 -->
<g id="edge1_Node000001_Node000002" class="edge">
<title>Node1&#45;&gt;Node2</title>
<g id="a_edge1_Node000001_Node000002"><a xlink:title=" ">
<path fill="none" stroke="#63b8ff" d="M69.65,-57.01C77.7,-59.08 86.58,-61.36 95.61,-63.69"/>
<polygon fill="#63b8ff" stroke="#63b8ff" points="94.64,-67.05 105.2,-66.15 96.38,-60.27 94.64,-67.05"/>
</a>
</g>
</g>
<!-- Node3 -->
<g id="Node000003" class="node">
<title>Node3</title>
<g id="a_Node000003"><a xlink:href="compressor_8c.html#a5b252fccaf851831b80b23839242cebe" target="_top" xlink:title=" ">
<polygon fill="white" stroke="#666666" points="217.62,-30.5 119.88,-30.5 119.88,0 217.62,0 217.62,-30.5"/>
<text xml:space="preserve" text-anchor="start" x="127.88" y="-17" font-family="Helvetica,sans-Serif" font-size="10.00">compressor_is_file</text>
<text xml:space="preserve" text-anchor="middle" x="168.75" y="-5.75" font-family="Helvetica,sans-Serif" font-size="10.00">_compressed</text>
</a>
</g>
</g>
<!-- Node1&#45;&gt;Node3 -->
<g id="edge3_Node000001_Node000003" class="edge">
<title>Node1&#45;&gt;Node3</title>
<g id="a_edge3_Node000001_Node000003"><a xlink:title=" ">
<path fill="none" stroke="#63b8ff" d="M69.65,-39.75C81.48,-36.8 95.11,-33.39 108.38,-30.08"/>
<polygon fill="#63b8ff" stroke="#63b8ff" points="109.08,-33.51 117.93,-27.69 107.38,-26.72 109.08,-33.51"/>
</a>
</g>
</g>
<!-- Node2&#45;&gt;Node2 -->
<g id="edge2_Node000002_Node000002" class="edge">
<title>Node2&#45;&gt;Node2</title>
<g id="a_edge2_Node000002_Node000002"><a xlink:title=" ">
<path fill="none" stroke="#63b8ff" d="M144.98,-97.99C140.13,-107.06 148.05,-115.5 168.75,-115.5 180.07,-115.5 187.57,-112.97 191.24,-109.2"/>
<polygon fill="#63b8ff" stroke="#63b8ff" points="194.7,-109.82 192.35,-99.49 187.74,-109.03 194.7,-109.82"/>
</a>
</g>
</g>
<!-- Node3&#45;&gt;Node3 -->
<g id="edge4_Node000003_Node000003" class="edge">
<title>Node3&#45;&gt;Node3</title>
<g id="a_edge4_Node000003_Node000003"><a xlink:title=" ">
<path fill="none" stroke="#63b8ff" d="M144.98,-30.99C140.13,-40.06 148.05,-48.5 168.75,-48.5 180.07,-48.5 187.57,-45.97 191.24,-42.2"/>
<polygon fill="#63b8ff" stroke="#63b8ff" points="194.7,-42.82 192.35,-32.49 187.74,-42.03 194.7,-42.82"/>
</a>
</g>
</g>
</g>
</svg>
