<?xml version="1.0" encoding="UTF-8" standalone="no"?>
<!DOCTYPE svg PUBLIC "-//W3C//DTD SVG 1.1//EN"
 "http://www.w3.org/Graphics/SVG/1.1/DTD/svg11.dtd">
<!-- Generated by graphviz version 16.1.0 (20260904.0139)
 -->
<!-- Title: src/compressor.c Pages: 1 -->
<!--zoomable 193 -->

<svg id="main" version="1.1" xmlns="http://www.w3.org/2000/svg" xmlns:xlink="http://www.w3.org/1999/xlink" xml:space="preserve">

<style type="text/css"><![CDATA[
.node, .edge {opacity: 0.7;}
.node.selected, .edge.selected {opacity: 1;}
.edge:hover path { stroke: red; }
.edge:hover polygon { stroke: red; fill: red; }
]]></style>

<defs>
  <circle id="rim" cx="0" cy="0" r="7"/>
  <circle id="rim2" cx="0" cy="0" r="3.5"/>
  <g id="zoomPlus">
    <use xlink:href="#rim" fill="#404040"><set attributeName="fill" to="#808080" begin="zoomplus.mouseover" end="zoomplus.mouseout"/></use>
    <path d="M-4,0h8M0,-4v8" fill="none" stroke="white" stroke-width="1.5" pointer-events="none"/>
  </g>
  <g id="zoomMin">
    <use xlink:href="#rim" fill="#404040"><set attributeName="fill" to="#808080" begin="zoomminus.mouseover" end="zoomminus.mouseout"/></use>
    <path d="M-4,0h8" fill="none" stroke="white" stroke-width="1.5" pointer-events="none"/>
  </g>
  <g id="arrowUp" transform="translate(30 24)">
    <use xlink:href="#rim"/>
    <path pointer-events="none" fill="none" stroke="white" stroke-width="1.5" d="M0,-3.0v7 M-2.5,-0.5L0,-3.0L2.5,-0.5"/>
  </g>
  <g id="arrowRight" transform="rotate(90) translate(36 -43)">
    <use xlink:href="#rim"/>
    <path pointer-events="none" fill="none" stroke="white" stroke-width="1.5" d="M0,-3.0v7 M-2.5,-0.5L0,-3.0L2.5,-0.5"/>
  </g>
  <g id="arrowDown" transform="rotate(180) translate(-30 -48)">
    <use xlink:href="#rim"/>
    <path pointer-events="none" fill="none" stroke="white" stroke-width="1.5" d="M0,-3.0v7 M-2.5,-0.5L0,-3.0L2.5,-0.5"/>
  </g>
  <g id="arrowLeft" transform="rotate(270) translate(-36 17)">
    <use xlink:href="#rim"/>
    <path pointer-events="none" fill="none" stroke="white" stroke-width="1.5" d="M0,-3.0v7 M-2.5,-0.5L0,-3.0L2.5,-0.5"/>
  </g>
  <g id="resetDef">
    <use xlink:href="#rim2" fill="#404040"><set attributeName="fill" to="#808080" begin="reset.mouseover" end="reset.mouseout"/></use>
  </g>
</defs>
<script type="application/ecmascript" xlink:href="svg.min.js"/>
<svg id="graph" class="graph" data-view-width="852" data-view-height="193" data-section-id="dynsection-0">
<g id="viewport">
<title>src/compressor.c</title>
<!-- Node1 -->
<g id="Node000001" class="node">
<title>Node1</title>
<g id="a_Node000001"><a xlink:title=" ">
<polygon fill="#999999" stroke="#666666" points="477.62,-185 386.62,-185 386.62,-165.75 477.62,-165.75 477.62,-185"/>
<text xml:space="preserve" text-anchor="middle" x="432.12" y="-171.5" font-family="Helvetica,sans-Serif" font-size="10.00">src/compressor.c</text>
</a>
</g>
</g>
<!-- Node2 -->
<g id="Node000002" class="node">
<title>Node2</title>
<g id="a_Node000002"><a xlink:href="compressor_8h.html" target="_top" xlink:title=" ">
<polygon fill="white" stroke="#666666" points="186.38,-129.75 111.88,-129.75 111.88,-110.5 186.38,-110.5 186.38,-129.75"/>
<text xml:space="preserve" text-anchor="middle" x="149.12" y="-116.25" font-family="Helvetica,sans-Serif" font-size="10.00">compressor.h</text>
</a>
</g>
</g>
<!-- Node1&#45;&gt;Node2 -->
<g id="edge1_Node000001_Node000002" class="edge">
<title>Node1&#45;&gt;Node2</title>
<g id="a_edge1_Node000001_Node000002"><a xlink:title=" ">
<path fill="none" stroke="#63b8ff" d="M386.34,-165.76C334.6,-156.03 250.72,-140.24 197.82,-130.29"/>
<polygon fill="#63b8ff" stroke="#63b8ff" points="198.66,-126.88 188.18,-128.47 197.36,-133.76 198.66,-126.88"/>
</a>
</g>
</g>
<!-- Node6 -->
<g id="Node000006" class="node">
<title>Node6</title>
<g id="a_Node000006"><a xlink:title=" ">
<polygon fill="#e0e0e0" stroke="#999999" points="48.25,-19.25 0,-19.25 0,0 48.25,0 48.25,-19.25"/>
<text xml:space="preserve" text-anchor="middle" x="24.12" y="-5.75" font-family="Helvetica,sans-Serif" font-size="10.00">stdint.h</text>
</a>
</g>
</g>
<!-- Node1&#45;&gt;Node6 -->
<g id="edge17_Node000001_Node000006" class="edge">
<title>Node1&#45;&gt;Node6</title>
<g id="a_edge17_Node000001_Node000006"><a xlink:title=" ">
<path fill="none" stroke="#63b8ff" d="M386.14,-175.2C320.82,-174.83 198.49,-168.38 103.12,-129.75 64.75,-114.21 47.95,-110.85 28.12,-74.5 20.87,-61.19 20.21,-43.93 21.18,-30.71"/>
<polygon fill="#63b8ff" stroke="#63b8ff" points="24.63,-31.36 22.27,-21.03 17.67,-30.58 24.63,-31.36"/>
</a>
</g>
</g>
<!-- Node7 -->
<g id="Node000007" class="node">
<title>Node7</title>
<g id="a_Node000007"><a xlink:href="constants_8h.html" target="_top" xlink:title=" ">
<polygon fill="white" stroke="#666666" points="301.62,-74.5 234.62,-74.5 234.62,-55.25 301.62,-55.25 301.62,-74.5"/>
<text xml:space="preserve" text-anchor="middle" x="268.12" y="-61" font-family="Helvetica,sans-Serif" font-size="10.00">constants.h</text>
</a>
</g>
</g>
<!-- Node1&#45;&gt;Node7 -->
<g id="edge12_Node000001_Node000007" class="edge">
<title>Node1&#45;&gt;Node7</title>
<g id="a_edge12_Node000001_Node000007"><a xlink:title=" ">
<path fill="none" stroke="#63b8ff" d="M386.21,-170.6C333.52,-165.21 251.93,-153.24 233.12,-129.75 221.41,-115.12 235,-96.01 248.51,-82.52"/>
<polygon fill="#63b8ff" stroke="#63b8ff" points="250.63,-85.33 255.58,-75.97 245.87,-80.2 250.63,-85.33"/>
</a>
</g>
</g>
<!-- Node9 -->
<g id="Node000009" class="node">
<title>Node9</title>
<g id="a_Node000009"><a xlink:title=" ">
<polygon fill="#e0e0e0" stroke="#999999" points="288.12,-129.75 242.12,-129.75 242.12,-110.5 288.12,-110.5 288.12,-129.75"/>
<text xml:space="preserve" text-anchor="middle" x="265.12" y="-116.25" font-family="Helvetica,sans-Serif" font-size="10.00">errno.h</text>
</a>
</g>
</g>
<!-- Node1&#45;&gt;Node9 -->
<g id="edge13_Node000001_Node000009" class="edge">
<title>Node1&#45;&gt;Node9</title>
<g id="a_edge13_Node000001_Node000009"><a xlink:title=" ">
<path fill="none" stroke="#63b8ff" d="M403.8,-165.34C374.87,-156.12 329.96,-141.8 299.13,-131.97"/>
<polygon fill="#63b8ff" stroke="#63b8ff" points="300.5,-128.73 289.91,-129.03 298.37,-135.4 300.5,-128.73"/>
</a>
</g>
</g>
<!-- Node10 -->
<g id="Node000010" class="node">
<title>Node10</title>
<g id="a_Node000010"><a xlink:title=" ">
<polygon fill="#e0e0e0" stroke="#999999" points="349.62,-129.75 306.62,-129.75 306.62,-110.5 349.62,-110.5 349.62,-129.75"/>
<text xml:space="preserve" text-anchor="middle" x="328.12" y="-116.25" font-family="Helvetica,sans-Serif" font-size="10.00">fcntl.h</text>
</a>
</g>
</g>
<!-- Node1&#45;&gt;Node10 -->
<g id="edge14_Node000001_Node000010" class="edge">
<title>Node1&#45;&gt;Node10</title>
<g id="a_edge14_Node000001_Node000010"><a xlink:title=" ">
<path fill="none" stroke="#63b8ff" d="M414.48,-165.34C398.5,-157.16 374.67,-144.96 356.09,-135.44"/>
<polygon fill="#63b8ff" stroke="#63b8ff" points="357.7,-132.33 347.2,-130.89 354.51,-138.57 357.7,-132.33"/>
</a>
</g>
</g>
<!-- Node11 -->
<g id="Node000011" class="node">
<title>Node11</title>
<g id="a_Node000011"><a xlink:title=" ">
<polygon fill="#e0e0e0" stroke="#999999" points="424.38,-129.75 367.88,-129.75 367.88,-110.5 424.38,-110.5 424.38,-129.75"/>
<text xml:space="preserve" text-anchor="middle" x="396.12" y="-116.25" font-family="Helvetica,sans-Serif" font-size="10.00">pthread.h</text>
</a>
</g>
</g>
<!-- Node1&#45;&gt;Node11 -->
<g id="edge15_Node000001_Node000011" class="edge">
<title>Node1&#45;&gt;Node11</title>
<g id="a_edge15_Node000001_Node000011"><a xlink:title=" ">
<path fill="none" stroke="#63b8ff" d="M426.18,-165.58C421.41,-158.53 414.56,-148.4 408.6,-139.58"/>
<polygon fill="#63b8ff" stroke="#63b8ff" points="411.55,-137.69 403.05,-131.36 405.75,-141.61 411.55,-137.69"/>
</a>
</g>
</g>
<!-- Node12 -->
<g id="Node000012" class="node">
<title>Node12</title>
<g id="a_Node000012"><a xlink:title=" ">
<polygon fill="#e0e0e0" stroke="#999999" points="495.5,-129.75 442.75,-129.75 442.75,-110.5 495.5,-110.5 495.5,-129.75"/>
<text xml:space="preserve" text-anchor="middle" x="469.12" y="-116.25" font-family="Helvetica,sans-Serif" font-size="10.00">spawn.h</text>
</a>
</g>
</g>
<!-- Node1&#45;&gt;Node12 -->
<g id="edge16_Node000001_Node000012" class="edge">
<title>Node1&#45;&gt;Node12</title>
<g id="a_edge16_Node000001_Node000012"><a xlink:title=" ">
<path fill="none" stroke="#63b8ff" d="M438.23,-165.58C443.19,-158.46 450.33,-148.18 456.5,-139.3"/>
<polygon fill="#63b8ff" stroke="#63b8ff" points="459.19,-141.56 462.02,-131.35 453.44,-137.57 459.19,-141.56"/>
</a>
</g>
</g>
<!-- Node13 -->
<g id="Node000013" class="node">
<title>Node13</title>
<g id="a_Node000013"><a xlink:title=" ">
<polygon fill="#e0e0e0" stroke="#999999" points="558.75,-129.75 513.5,-129.75 513.5,-110.5 558.75,-110.5 558.75,-129.75"/>
<text xml:space="preserve" text-anchor="middle" x="536.12" y="-116.25" font-family="Helvetica,sans-Serif" font-size="10.00">stdio.h</text>
</a>
</g>
</g>
<!-- Node1&#45;&gt;Node13 -->
<g id="edge18_Node000001_Node000013" class="edge">
<title>Node1&#45;&gt;Node13</title>
<g id="a_edge18_Node000001_Node000013"><a xlink:title=" ">
<path fill="none" stroke="#63b8ff" d="M449.77,-165.34C465.75,-157.16 489.58,-144.96 508.16,-135.44"/>
<polygon fill="#63b8ff" stroke="#63b8ff" points="509.74,-138.57 517.05,-130.89 506.55,-132.33 509.74,-138.57"/>
</a>
</g>
</g>
<!-- Node14 -->
<g id="Node000014" class="node">
<title>Node14</title>
<g id="a_Node000014"><a xlink:title=" ">
<polygon fill="#e0e0e0" stroke="#999999" points="625.25,-129.75 577,-129.75 577,-110.5 625.25,-110.5 625.25,-129.75"/>
<text xml:space="preserve" text-anchor="middle" x="601.12" y="-116.25" font-family="Helvetica,sans-Serif" font-size="10.00">string.h</text>
</a>
</g>
</g>
<!-- Node1&#45;&gt;Node14 -->
<g id="edge19_Node000001_Node000014" class="edge">
<title>Node1&#45;&gt;Node14</title>
<g id="a_edge19_Node000001_Node000014"><a xlink:title=" ">
<path fill="none" stroke="#63b8ff" d="M460.79,-165.34C489.81,-156.2 534.74,-142.04 565.91,-132.22"/>
<polygon fill="#63b8ff" stroke="#63b8ff" points="566.78,-135.62 575.27,-129.27 564.68,-128.94 566.78,-135.62"/>
</a>
</g>
</g>
<!-- Node15 -->
<g id="Node000015" class="node">
<title>Node15</title>
<g id="a_Node000015"><a xlink:title=" ">
<polygon fill="#e0e0e0" stroke="#999999" points="696.88,-129.75 643.38,-129.75 643.38,-110.5 696.88,-110.5 696.88,-129.75"/>
<text xml:space="preserve" text-anchor="middle" x="670.12" y="-116.25" font-family="Helvetica,sans-Serif" font-size="10.00">strings.h</text>
</a>
</g>
</g>
<!-- Node1&#45;&gt;Node15 -->
<g id="edge20_Node000001_Node000015" class="edge">
<title>Node1&#45;&gt;Node15</title>
<g id="a_edge20_Node000001_Node000015"><a xlink:title=" ">
<path fill="none" stroke="#63b8ff" d="M474.34,-165.28C512.93,-156.91 571.85,-144.01 632.14,-130.18"/>
<polygon fill="#63b8ff" stroke="#63b8ff" points="632.57,-133.67 641.54,-128.01 631.01,-126.85 632.57,-133.67"/>
</a>
</g>
</g>
<!-- Node16 -->
<g id="Node000016" class="node">
<title>Node16</title>
<g id="a_Node000016"><a xlink:title=" ">
<polygon fill="#e0e0e0" stroke="#999999" points="775.62,-129.75 714.62,-129.75 714.62,-110.5 775.62,-110.5 775.62,-129.75"/>
<text xml:space="preserve" text-anchor="middle" x="745.12" y="-116.25" font-family="Helvetica,sans-Serif" font-size="10.00">sys/wait.h</text>
</a>
</g>
</g>
<!-- Node1&#45;&gt;Node16 -->
<g id="edge21_Node000001_Node000016" class="edge">
<title>Node1&#45;&gt;Node16</title>
<g id="a_edge21_Node000001_Node000016"><a xlink:title=" ">
<path fill="none" stroke="#63b8ff" d="M477.84,-167.73C530.06,-159.97 618.32,-146.31 703.34,-130.2"/>
<polygon fill="#63b8ff" stroke="#63b8ff" points="703.85,-133.67 713.02,-128.35 702.54,-126.79 703.85,-133.67"/>
</a>
</g>
</g>
<!-- Node17 -->
<g id="Node000017" class="node">
<title>Node17</title>
<g id="a_Node000017"><a xlink:title=" ">
<polygon fill="#e0e0e0" stroke="#999999" points="844.38,-129.75 793.88,-129.75 793.88,-110.5 844.38,-110.5 844.38,-129.75"/>
<text xml:space="preserve" text-anchor="middle" x="819.12" y="-116.25" font-family="Helvetica,sans-Serif" font-size="10.00">unistd.h</text>
</a>
</g>
</g>
<!-- Node1&#45;&gt;Node17 -->
<g id="edge22_Node000001_Node000017" class="edge">
<title>Node1&#45;&gt;Node17</title>
<g id="a_edge22_Node000001_Node000017"><a xlink:title=" ">
<path fill="none" stroke="#63b8ff" d="M478.1,-170.38C543.63,-164.29 667.8,-151.28 782.51,-130.04"/>
<polygon fill="#63b8ff" stroke="#63b8ff" points="782.91,-133.53 792.09,-128.24 781.62,-126.65 782.91,-133.53"/>
</a>
</g>
</g>
<!-- Node3 -->
<g id="Node000003" class="node">
<title>Node3</title>
<g id="a_Node000003"><a xlink:href="config_8h.html" target="_top" xlink:title=" ">
<polygon fill="white" stroke="#666666" points="102.38,-74.5 51.88,-74.5 51.88,-55.25 102.38,-55.25 102.38,-74.5"/>
<text xml:space="preserve" text-anchor="middle" x="77.12" y="-61" font-family="Helvetica,sans-Serif" font-size="10.00">config.h</text>
</a>
</g>
</g>
<!-- Node2&#45;&gt;Node3 -->
<g id="edge2_Node000002_Node000003" class="edge">
<title>Node2&#45;&gt;Node3</title>
<g id="a_edge2_Node000002_Node000003"><a xlink:title=" ">
<path fill="none" stroke="#63b8ff" d="M136.91,-110.09C126.3,-102.24 110.69,-90.7 98.08,-81.37"/>
<polygon fill="#63b8ff" stroke="#63b8ff" points="100.5,-78.81 90.38,-75.67 96.33,-84.44 100.5,-78.81"/>
</a>
</g>
</g>
<!-- Node4 -->
<g id="Node000004" class="node">
<title>Node4</title>
<g id="a_Node000004"><a xlink:title=" ">
<polygon fill="#e0e0e0" stroke="#999999" points="195,-19.25 139.25,-19.25 139.25,0 195,0 195,-19.25"/>
<text xml:space="preserve" text-anchor="middle" x="167.12" y="-5.75" font-family="Helvetica,sans-Serif" font-size="10.00">stdbool.h</text>
</a>
</g>
</g>
<!-- Node2&#45;&gt;Node4 -->
<g id="edge8_Node000002_Node000004" class="edge">
<title>Node2&#45;&gt;Node4</title>
<g id="a_edge8_Node000002_Node000004"><a xlink:title=" ">
<path fill="none" stroke="#63b8ff" d="M150.6,-110.25C153.46,-93 159.83,-54.58 163.78,-30.81"/>
<polygon fill="#63b8ff" stroke="#63b8ff" points="167.2,-31.56 165.38,-21.12 160.29,-30.41 167.2,-31.56"/>
</a>
</g>
</g>
<!-- Node5 -->
<g id="Node000005" class="node">
<title>Node5</title>
<g id="a_Node000005"><a xlink:title=" ">
<polygon fill="#e0e0e0" stroke="#999999" points="119.75,-19.25 68.5,-19.25 68.5,0 119.75,0 119.75,-19.25"/>
<text xml:space="preserve" text-anchor="middle" x="94.12" y="-5.75" font-family="Helvetica,sans-Serif" font-size="10.00">stddef.h</text>
</a>
</g>
</g>
<!-- Node2&#45;&gt;Node5 -->
<g id="edge9_Node000002_Node000005" class="edge">
<title>Node2&#45;&gt;Node5</title>
<g id="a_edge9_Node000002_Node000005"><a xlink:title=" ">
<path fill="none" stroke="#63b8ff" d="M144.62,-110.25C135.76,-92.76 115.87,-53.52 103.86,-29.84"/>
<polygon fill="#63b8ff" stroke="#63b8ff" points="107.02,-28.31 99.37,-20.98 100.77,-31.48 107.02,-28.31"/>
</a>
</g>
</g>
<!-- Node2&#45;&gt;Node6 -->
<g id="edge10_Node000002_Node000006" class="edge">
<title>Node2&#45;&gt;Node6</title>
<g id="a_edge10_Node000002_Node000006"><a xlink:title=" ">
<path fill="none" stroke="#63b8ff" d="M111.5,-111.82C88.77,-105.55 60.85,-94.28 43.12,-74.5 32.37,-62.49 27.69,-44.63 25.66,-30.85"/>
<polygon fill="#63b8ff" stroke="#63b8ff" points="29.17,-30.69 24.61,-21.13 22.21,-31.44 29.17,-30.69"/>
</a>
</g>
</g>
<!-- Node2&#45;&gt;Node7 -->
<g id="edge6_Node000002_Node000007" class="edge">
<title>Node2&#45;&gt;Node7</title>
<g id="a_edge6_Node000002_Node000007"><a xlink:title=" ">
<path fill="none" stroke="#63b8ff" d="M169.31,-110.09C188.03,-101.72 216.15,-89.13 237.61,-79.53"/>
<polygon fill="#63b8ff" stroke="#63b8ff" points="238.76,-82.85 246.46,-75.57 235.9,-76.46 238.76,-82.85"/>
</a>
</g>
</g>
<!-- Node8 -->
<g id="Node000008" class="node">
<title>Node8</title>
<g id="a_Node000008"><a xlink:title=" ">
<polygon fill="#e0e0e0" stroke="#999999" points="284.88,-19.25 225.38,-19.25 225.38,0 284.88,0 284.88,-19.25"/>
<text xml:space="preserve" text-anchor="middle" x="255.12" y="-5.75" font-family="Helvetica,sans-Serif" font-size="10.00">sys/stat.h</text>
</a>
</g>
</g>
<!-- Node2&#45;&gt;Node8 -->
<g id="edge11_Node000002_Node000008" class="edge">
<title>Node2&#45;&gt;Node8</title>
<g id="a_edge11_Node000002_Node000008"><a xlink:title=" ">
<path fill="none" stroke="#63b8ff" d="M157.8,-110.25C175.42,-92.21 215.68,-51 238.52,-27.63"/>
<polygon fill="#63b8ff" stroke="#63b8ff" points="240.79,-30.31 245.27,-20.71 235.78,-25.42 240.79,-30.31"/>
</a>
</g>
</g>
<!-- Node3&#45;&gt;Node4 -->
<g id="edge3_Node000003_Node000004" class="edge">
<title>Node3&#45;&gt;Node4</title>
<g id="a_edge3_Node000003_Node000004"><a xlink:title=" ">
<path fill="none" stroke="#63b8ff" d="M92.39,-54.84C105.97,-46.81 126.08,-34.91 142.02,-25.48"/>
<polygon fill="#63b8ff" stroke="#63b8ff" points="143.66,-28.58 150.48,-20.47 140.09,-22.55 143.66,-28.58"/>
</a>
</g>
</g>
<!-- Node3&#45;&gt;Node5 -->
<g id="edge4_Node000003_Node000005" class="edge">
<title>Node3&#45;&gt;Node5</title>
<g id="a_edge4_Node000003_Node000005"><a xlink:title=" ">
<path fill="none" stroke="#63b8ff" d="M79.93,-55.08C82.06,-48.42 85.07,-38.99 87.77,-30.53"/>
<polygon fill="#63b8ff" stroke="#63b8ff" points="91.09,-31.64 90.8,-21.05 84.42,-29.51 91.09,-31.64"/>
</a>
</g>
</g>
<!-- Node3&#45;&gt;Node6 -->
<g id="edge5_Node000003_Node000006" class="edge">
<title>Node3&#45;&gt;Node6</title>
<g id="a_edge5_Node000003_Node000006"><a xlink:title=" ">
<path fill="none" stroke="#63b8ff" d="M68.37,-55.08C60.98,-47.65 50.16,-36.79 41.08,-27.66"/>
<polygon fill="#63b8ff" stroke="#63b8ff" points="43.67,-25.3 34.13,-20.68 38.71,-30.24 43.67,-25.3"/>
</a>
</g>
</g>
<!-- Node7&#45;&gt;Node8 -->
<g id="edge7_Node000007_Node000008" class="edge">
<title>Node7&#45;&gt;Node8</title>
<g id="a_edge7_Node000007_Node000008"><a xlink:title=" ">
<path fill="none" stroke="#63b8ff" d="M265.98,-55.08C264.35,-48.42 262.05,-38.99 259.98,-30.53"/>
<polygon fill="#63b8ff" stroke="#63b8ff" points="263.45,-29.96 257.68,-21.08 256.65,-31.62 263.45,-29.96"/>
</a>
</g>
</g>
</g>
</svg>

<g id="navigator" transform="translate(0 0)" fill="#404254">
  <rect fill="#f2f5e9" fill-opacity="0.5" stroke="#606060" stroke-width=".5" x="0" y="0" width="60" height="60"/>
  <use id="zoomplus" xlink:href="#zoomPlus" x="17" y="9" data-zoom="in"/>
  <use id="zoomminus" xlink:href="#zoomMin" x="42" y="9" data-zoom="out"/>
  <use id="reset" xlink:href="#resetDef" x="30" y="36" data-reset="true"/>
  <use id="arrowup" xlink:href="#arrowUp" x="0" y="0" data-pan-x="0" data-pan-y="-1"/>
  <use id="arrowright" xlink:href="#arrowRight" x="0" y="0" data-pan-x="1" data-pan-y="0"/>
  <use id="arrowdown" xlink:href="#arrowDown" x="0" y="0" data-pan-x="0" data-pan-y="1"/>
  <use id="arrowleft" xlink:href="#arrowLeft" x="0" y="0" data-pan-x="-1" data-pan-y="0"/>
</g>
<svg viewBox="0 0 15 15" width="100%" height="30px" preserveAspectRatio="xMaxYMin meet">
 <g id="arrow_out" transform="scale(0.3 0.3)">
  <a xlink:href="compressor_8c__incl_org.svg" target="_base">
   <rect id="button" ry="5" rx="5" y="6" x="6" height="38" width="38"
        fill="#f2f5e9" fill-opacity="0.5" stroke="#606060" stroke-width="1.0"/>
   <path id="arrow"
     d="M 11.500037,31.436501 C 11.940474,20.09759 22.043105,11.32322 32.158766,21.979434 L 37.068811,17.246167 C 37.068811,17.246167 37.088388,32 37.088388,32 L 22.160133,31.978069 C 22.160133,31.978069 26.997745,27.140456 26.997745,27.140456 C 18.528582,18.264221 13.291696,25.230495 11.500037,31.436501 z"
     style="fill:#404040;"/>
  </a>
 </g>
</svg>

<style type='text/css'>
<![CDATA[
[data-mouse-over-selected='false'] { opacity: 0.7; }
[data-mouse-over-selected='true']  { opacity: 1.0; }
]]>
</style>
</svg>
