<?xml version="1.0" encoding="UTF-8" standalone="no"?>
<!DOCTYPE svg PUBLIC "-//W3C//DTD SVG 1.1//EN"
 "http://www.w3.org/Graphics/SVG/1.1/DTD/svg11.dtd">
<!-- Generated by graphviz version 16.1.0 (20260904.0139)
 -->
<!-- Title: find_afsctool_path Pages: 1 -->
<svg width="423pt" height="45pt"
 viewBox="0.00 0.00 423.00 45.00" xmlns="http://www.w3.org/2000/svg" xmlns:xlink="http://www.w3.org/1999/xlink">
<g id="graph0" class="graph" transform="scale(1 1) rotate(0) translate(4 41.25)">
<title>find_afsctool_path</title>
<!-- Node1 -->
<g id="Node000001" class="node">
<title>Node1</title>
<g id="a_Node000001"><a xlink:title=" ">
<polygon fill="#999999" stroke="#666666" points="415,-19.25 319.5,-19.25 319.5,0 415,0 415,-19.25"/>
<text xml:space="preserve" text-anchor="middle" x="367.25" y="-5.75" font-family="Helvetica,sans-Serif" font-size="10.00">find_afsctool_path</text>
</a>
</g>
</g>
<!-- Node1&#45;&gt;Node1 -->
<g id="edge7_Node000001_Node000001" class="edge">
<title>Node1&#45;&gt;Node1</title>
<g id="a_edge7_Node000001_Node000001"><a xlink:title=" ">
<path fill="none" stroke="#63b8ff" d="M391.79,-30.65C388.72,-34.53 380.54,-37.25 367.25,-37.25 342.95,-37.25 335.73,-28.15 345.61,-19.54"/>
<polygon fill="#63b8ff" stroke="#63b8ff" points="395.18,-29.8 389.28,-21 388.41,-31.56 395.18,-29.8"/>
</a>
</g>
</g>
<!-- Node2 -->
<g id="Node000002" class="node">
<title>Node2</title>
<g id="a_Node000002"><a xlink:href="config_8c.html#a64bdcfc18c0938d0420935f38d65381e" target="_top" xlink:title=" ">
<polygon fill="white" stroke="#666666" points="283.5,-19.25 174.5,-19.25 174.5,0 283.5,0 283.5,-19.25"/>
<text xml:space="preserve" text-anchor="middle" x="229" y="-5.75" font-family="Helvetica,sans-Serif" font-size="10.00">config_create_default</text>
</a>
</g>
</g>
<!-- Node1&#45;&gt;Node2 -->
<g id="edge1_Node000001_Node000002" class="edge">
<title>Node1&#45;&gt;Node2</title>
<g id="a_edge1_Node000001_Node000002"><a xlink:title=" ">
<path fill="none" stroke="#63b8ff" d="M308.04,-9.62C299.9,-9.62 291.57,-9.62 283.53,-9.62"/>
<polygon fill="#63b8ff" stroke="#63b8ff" points="307.85,-13.13 317.85,-9.63 307.85,-6.13 307.85,-13.13"/>
</a>
</g>
</g>
<!-- Node2&#45;&gt;Node2 -->
<g id="edge2_Node000002_Node000002" class="edge">
<title>Node2&#45;&gt;Node2</title>
<g id="a_edge2_Node000002_Node000002"><a xlink:title=" ">
<path fill="none" stroke="#63b8ff" d="M250.88,-30.65C248.14,-34.53 240.85,-37.25 229,-37.25 207.33,-37.25 200.9,-28.15 209.7,-19.54"/>
<polygon fill="#63b8ff" stroke="#63b8ff" points="254.31,-29.96 248.64,-21.01 247.49,-31.54 254.31,-29.96"/>
</a>
</g>
</g>
<!-- Node3 -->
<g id="Node000003" class="node">
<title>Node3</title>
<g id="a_Node000003"><a xlink:href="config_8c.html#a8e43ece0a55efc6ef8393d12669aa4b9" target="_top" xlink:title=" ">
<polygon fill="white" stroke="#666666" points="138.5,-19.25 73,-19.25 73,0 138.5,0 138.5,-19.25"/>
<text xml:space="preserve" text-anchor="middle" x="105.75" y="-5.75" font-family="Helvetica,sans-Serif" font-size="10.00">config_load</text>
</a>
</g>
</g>
<!-- Node2&#45;&gt;Node3 -->
<g id="edge3_Node000002_Node000003" class="edge">
<title>Node2&#45;&gt;Node3</title>
<g id="a_edge3_Node000002_Node000003"><a xlink:title=" ">
<path fill="none" stroke="#63b8ff" d="M162.8,-9.62C154.51,-9.62 146.34,-9.62 138.91,-9.62"/>
<polygon fill="#63b8ff" stroke="#63b8ff" points="162.6,-13.13 172.6,-9.63 162.6,-6.13 162.6,-13.13"/>
</a>
</g>
</g>
<!-- Node3&#45;&gt;Node3 -->
<g id="edge4_Node000003_Node000003" class="edge">
<title>Node3&#45;&gt;Node3</title>
<g id="a_edge4_Node000003_Node000003"><a xlink:title=" ">
<path fill="none" stroke="#63b8ff" d="M121.24,-30.65C119.3,-34.53 114.14,-37.25 105.75,-37.25 90.41,-37.25 85.86,-28.15 92.09,-19.54"/>
<polygon fill="#63b8ff" stroke="#63b8ff" points="124.73,-30.33 119.66,-21.03 117.82,-31.47 124.73,-30.33"/>
</a>
</g>
</g>
<!-- Node4 -->
<g id="Node000004" class="node">
<title>Node4</title>
<g id="a_Node000004"><a xlink:href="main_8c.html#a5d474dbfbae98dbc733874c8062c4c10" target="_top" xlink:title=" ">
<polygon fill="white" stroke="#666666" points="37,-19.25 0,-19.25 0,0 37,0 37,-19.25"/>
<text xml:space="preserve" text-anchor="middle" x="18.5" y="-5.75" font-family="Helvetica,sans-Serif" font-size="10.00">main</text>
</a>
</g>
</g>
<!-- Node3&#45;&gt;Node4 -->
<g id="edge5_Node000003_Node000004" class="edge">
<title>Node3&#45;&gt;Node4</title>
<g id="a_edge5_Node000003_Node000004"><a xlink:title=" ">
<path fill="none" stroke="#63b8ff" d="M61.17,-9.62C52.77,-9.62 44.43,-9.62 37.44,-9.62"/>
<polygon fill="#63b8ff" stroke="#63b8ff" points="61.01,-13.13 71.01,-9.63 61.01,-6.13 61.01,-13.13"/>
</a>
</g>
</g>
<!-- Node4&#45;&gt;Node4 -->
<g id="edge6_Node000004_Node000004" class="edge">
<title>Node4&#45;&gt;Node4</title>
<g id="a_edge6_Node000004_Node000004"><a xlink:title=" ">
<path fill="none" stroke="#63b8ff" d="M33.99,-30.65C32.05,-34.53 26.89,-37.25 18.5,-37.25 3.16,-37.25 -1.39,-28.15 4.84,-19.54"/>
<polygon fill="#63b8ff" stroke="#63b8ff" points="37.48,-30.33 32.41,-21.03 30.57,-31.47 37.48,-30.33"/>
</a>
</g>
</g>
</g>
</svg>
