<?xml version="1.0" encoding="UTF-8" standalone="no"?>
<!DOCTYPE svg PUBLIC "-//W3C//DTD SVG 1.1//EN"
 "http://www.w3.org/Graphics/SVG/1.1/DTD/svg11.dtd">
<!-- Generated by graphviz version 16.1.0 (20260904.0139)
 -->
<!-- Title: db_free_top_saved Pages: 1 -->
<svg width="311pt" height="45pt"
 viewBox="0.00 0.00 311.00 45.00" xmlns="http://www.w3.org/2000/svg" xmlns:xlink="http://www.w3.org/1999/xlink">
<g id="graph0" class="graph" transform="scale(1 1) rotate(0) translate(4 41.25)">
<title>db_free_top_saved</title>
<!-- Node1 -->
<g id="Node000001" class="node">
<title>Node1</title>
<g id="a_Node000001"><a xlink:title=" ">
<polygon fill="#999999" stroke="#666666" points="303.04,-19.25 204.54,-19.25 204.54,0 303.04,0 303.04,-19.25"/>
<text xml:space="preserve" text-anchor="middle" x="253.79" y="-5.75" font-family="Helvetica,sans-Serif" font-size="10.00">db_free_top_saved</text>
</a>
</g>
</g>
<!-- Node1&#45;&gt;Node1 -->
<g id="edge1_Node000001_Node000001" class="edge">
<title>Node1&#45;&gt;Node1</title>
<g id="a_edge1_Node000001_Node000001"><a xlink:title=" ">
<path fill="none" stroke="#63b8ff" d="M277.33,-30.65C274.39,-34.53 266.54,-37.25 253.79,-37.25 230.48,-37.25 223.56,-28.15 233.03,-19.54"/>
<polygon fill="#63b8ff" stroke="#63b8ff" points="280.74,-29.86 274.92,-21.01 273.95,-31.56 280.74,-29.86"/>
</a>
</g>
</g>
<!-- Node2 -->
<g id="Node000002" class="node">
<title>Node2</title>
<g id="a_Node000002"><a xlink:href="report_8c.html#aaa23909920eed12f45fb0fa86129ec9a" target="_top" xlink:title=" ">
<polygon fill="white" stroke="#666666" points="168.54,-19.25 73.79,-19.25 73.79,0 168.54,0 168.54,-19.25"/>
<text xml:space="preserve" text-anchor="middle" x="121.16" y="-5.75" font-family="Helvetica,sans-Serif" font-size="10.00">report_print_report</text>
</a>
</g>
</g>
<!-- Node1&#45;&gt;Node2 -->
<g id="edge2_Node000001_Node000002" class="edge">
<title>Node1&#45;&gt;Node2</title>
<g id="a_edge2_Node000001_Node000002"><a xlink:title=" ">
<path fill="none" stroke="#63b8ff" d="M192.82,-9.62C184.71,-9.62 176.5,-9.62 168.68,-9.62"/>
<polygon fill="#63b8ff" stroke="#63b8ff" points="192.64,-13.13 202.64,-9.63 192.64,-6.13 192.64,-13.13"/>
</a>
</g>
</g>
<!-- Node2&#45;&gt;Node2 -->
<g id="edge5_Node000002_Node000002" class="edge">
<title>Node2&#45;&gt;Node2</title>
<g id="a_edge5_Node000002_Node000002"><a xlink:title=" ">
<path fill="none" stroke="#63b8ff" d="M139.25,-30.65C136.99,-34.53 130.96,-37.25 121.16,-37.25 103.26,-37.25 97.94,-28.15 105.22,-19.54"/>
<polygon fill="#63b8ff" stroke="#63b8ff" points="142.72,-30.19 137.4,-21.02 135.85,-31.51 142.72,-30.19"/>
</a>
</g>
</g>
<!-- Node3 -->
<g id="Node000003" class="node">
<title>Node3</title>
<g id="a_Node000003"><a xlink:href="main_8c.html#a5d474dbfbae98dbc733874c8062c4c10" target="_top" xlink:title=" ">
<polygon fill="white" stroke="#666666" points="37.79,-19.25 0.79,-19.25 0.79,0 37.79,0 37.79,-19.25"/>
<text xml:space="preserve" text-anchor="middle" x="19.29" y="-5.75" font-family="Helvetica,sans-Serif" font-size="10.00">main</text>
</a>
</g>
</g>
<!-- Node2&#45;&gt;Node3 -->
<g id="edge3_Node000002_Node000003" class="edge">
<title>Node2&#45;&gt;Node3</title>
<g id="a_edge3_Node000002_Node000003"><a xlink:title=" ">
<path fill="none" stroke="#63b8ff" d="M61.95,-9.62C53.29,-9.62 44.97,-9.62 38.07,-9.62"/>
<polygon fill="#63b8ff" stroke="#63b8ff" points="61.93,-13.13 71.93,-9.63 61.93,-6.13 61.93,-13.13"/>
</a>
</g>
</g>
<!-- Node3&#45;&gt;Node3 -->
<g id="edge4_Node000003_Node000003" class="edge">
<title>Node3&#45;&gt;Node3</title>
<g id="a_edge4_Node000003_Node000003"><a xlink:title=" ">
<path fill="none" stroke="#63b8ff" d="M37.37,-30.65C35.11,-34.53 29.08,-37.25 19.29,-37.25 1.38,-37.25 -3.93,-28.15 3.34,-19.54"/>
<polygon fill="#63b8ff" stroke="#63b8ff" points="40.85,-30.19 35.52,-21.02 33.97,-31.51 40.85,-30.19"/>
</a>
</g>
</g>
</g>
</svg>
