<?xml version="1.0" encoding="UTF-8" standalone="no"?>
<!DOCTYPE svg PUBLIC "-//W3C//DTD SVG 1.1//EN"
 "http://www.w3.org/Graphics/SVG/1.1/DTD/svg11.dtd">
<!-- Generated by graphviz version 16.1.0 (20260904.0139)
 -->
<!-- Title: filter_get_extension Pages: 1 -->
<svg width="1205pt" height="219pt"
 viewBox="0.00 0.00 1205.00 219.00" xmlns="http://www.w3.org/2000/svg" xmlns:xlink="http://www.w3.org/1999/xlink">
<g id="graph0" class="graph" transform="scale(1 1) rotate(0) translate(4 215.25)">
<title>filter_get_extension</title>
<!-- Node1 -->
<g id="Node000001" class="node">
<title>Node1</title>
<g id="a_Node000001"><a xlink:title=" ">
<polygon fill="#999999" stroke="#666666" points="1196.61,-47.25 1095.86,-47.25 1095.86,-28 1196.61,-28 1196.61,-47.25"/>
<text xml:space="preserve" text-anchor="middle" x="1146.24" y="-33.75" font-family="Helvetica,sans-Serif" font-size="10.00">filter_get_extension</text>
</a>
</g>
</g>
<!-- Node1&#45;&gt;Node1 -->
<g id="edge26_Node000001_Node000001" class="edge">
<title>Node1&#45;&gt;Node1</title>
<g id="a_edge26_Node000001_Node000001"><a xlink:title=" ">
<path fill="none" stroke="#63b8ff" d="M1173.05,-58.32C1169.96,-62.37 1161.02,-65.25 1146.24,-65.25 1119.96,-65.25 1112.16,-56.15 1122.83,-47.54"/>
<polygon fill="#63b8ff" stroke="#63b8ff" points="1176.45,-57.46 1170.1,-48.98 1169.77,-59.57 1176.45,-57.46"/>
</a>
</g>
</g>
<!-- Node2 -->
<g id="Node000002" class="node">
<title>Node2</title>
<g id="a_Node000002"><a xlink:href="filter_8c.html#aa9c63785bad297558f33b2d98e568100" target="_top" xlink:title=" ">
<polygon fill="white" stroke="#666666" points="1035.11,-75.25 958.36,-75.25 958.36,-56 1035.11,-56 1035.11,-75.25"/>
<text xml:space="preserve" text-anchor="middle" x="996.74" y="-61.75" font-family="Helvetica,sans-Serif" font-size="10.00">filter_evaluate</text>
</a>
</g>
</g>
<!-- Node1&#45;&gt;Node2 -->
<g id="edge1_Node000001_Node000002" class="edge">
<title>Node1&#45;&gt;Node2</title>
<g id="a_edge1_Node000001_Node000002"><a xlink:title=" ">
<path fill="none" stroke="#63b8ff" d="M1084.85,-49.09C1068.05,-52.28 1050.3,-55.65 1035.24,-58.51"/>
<polygon fill="#63b8ff" stroke="#63b8ff" points="1085.05,-52.61 1094.23,-47.31 1083.75,-45.74 1085.05,-52.61"/>
</a>
</g>
</g>
<!-- Node12 -->
<g id="Node000012" class="node">
<title>Node12</title>
<g id="a_Node000012"><a xlink:href="db_8c.html#a3da84c9534dcf109ae594b417316f188" target="_top" xlink:title=" ">
<polygon fill="white" stroke="#666666" points="1059.86,-20.25 933.61,-20.25 933.61,-1 1059.86,-1 1059.86,-20.25"/>
<text xml:space="preserve" text-anchor="middle" x="996.74" y="-6.75" font-family="Helvetica,sans-Serif" font-size="10.00">sqlite_extension_function</text>
</a>
</g>
</g>
<!-- Node1&#45;&gt;Node12 -->
<g id="edge27_Node000001_Node000012" class="edge">
<title>Node1&#45;&gt;Node12</title>
<g id="a_edge27_Node000001_Node000012"><a xlink:title=" ">
<path fill="none" stroke="#63b8ff" d="M1084.55,-26.52C1074.09,-24.6 1063.28,-22.62 1052.97,-20.74"/>
<polygon fill="#63b8ff" stroke="#63b8ff" points="1083.76,-29.93 1094.22,-28.29 1085.02,-23.04 1083.76,-29.93"/>
</a>
</g>
</g>
<!-- Node2&#45;&gt;Node2 -->
<g id="edge2_Node000002_Node000002" class="edge">
<title>Node2&#45;&gt;Node2</title>
<g id="a_edge2_Node000002_Node000002"><a xlink:title=" ">
<path fill="none" stroke="#63b8ff" d="M1023.55,-86.32C1020.46,-90.37 1011.52,-93.25 996.74,-93.25 970.46,-93.25 962.66,-84.15 973.33,-75.54"/>
<polygon fill="#63b8ff" stroke="#63b8ff" points="1026.95,-85.46 1020.6,-76.98 1020.27,-87.57 1026.95,-85.46"/>
</a>
</g>
</g>
<!-- Node3 -->
<g id="Node000003" class="node">
<title>Node3</title>
<g id="a_Node000003"><a xlink:href="scanner_8c.html#aa2d07b61405d84dc510a580bee744df7" target="_top" xlink:title=" ">
<polygon fill="white" stroke="#666666" points="897.61,-75.25 754.11,-75.25 754.11,-56 897.61,-56 897.61,-75.25"/>
<text xml:space="preserve" text-anchor="middle" x="825.86" y="-61.75" font-family="Helvetica,sans-Serif" font-size="10.00">prepare_file_for_compression</text>
</a>
</g>
</g>
<!-- Node2&#45;&gt;Node3 -->
<g id="edge3_Node000002_Node000003" class="edge">
<title>Node2&#45;&gt;Node3</title>
<g id="a_edge3_Node000002_Node000003"><a xlink:title=" ">
<path fill="none" stroke="#63b8ff" d="M946.96,-65.62C931.64,-65.62 914.41,-65.62 897.87,-65.62"/>
<polygon fill="#63b8ff" stroke="#63b8ff" points="946.75,-69.13 956.75,-65.63 946.75,-62.13 946.75,-69.13"/>
</a>
</g>
</g>
<!-- Node3&#45;&gt;Node3 -->
<g id="edge4_Node000003_Node000003" class="edge">
<title>Node3&#45;&gt;Node3</title>
<g id="a_edge4_Node000003_Node000003"><a xlink:title=" ">
<path fill="none" stroke="#63b8ff" d="M854.08,-86.32C850.83,-90.37 841.42,-93.25 825.86,-93.25 798.2,-93.25 789.99,-84.15 801.23,-75.54"/>
<polygon fill="#63b8ff" stroke="#63b8ff" points="857.45,-85.36 850.98,-76.97 850.81,-87.57 857.45,-85.36"/>
</a>
</g>
</g>
<!-- Node4 -->
<g id="Node000004" class="node">
<title>Node4</title>
<g id="a_Node000004"><a xlink:href="scanner_8c.html#a6fb054ad3bab8197a9004b7bfc10e1de" target="_top" xlink:title=" ">
<polygon fill="white" stroke="#666666" points="717.36,-140.25 619.61,-140.25 619.61,-121 717.36,-121 717.36,-140.25"/>
<text xml:space="preserve" text-anchor="middle" x="668.49" y="-126.75" font-family="Helvetica,sans-Serif" font-size="10.00">process_file_batch</text>
</a>
</g>
</g>
<!-- Node3&#45;&gt;Node4 -->
<g id="edge5_Node000003_Node000004" class="edge">
<title>Node3&#45;&gt;Node4</title>
<g id="a_edge5_Node000003_Node000004"><a xlink:title=" ">
<path fill="none" stroke="#63b8ff" d="M790.68,-79.92C761.23,-92.24 719.47,-109.72 693.45,-120.6"/>
<polygon fill="#63b8ff" stroke="#63b8ff" points="791.66,-83.31 799.53,-76.22 788.95,-76.85 791.66,-83.31"/>
</a>
</g>
</g>
<!-- Node11 -->
<g id="Node000011" class="node">
<title>Node11</title>
<g id="a_Node000011"><a xlink:href="scanner_8c.html#a95550bac5145f2d8613c49a348b4ff47" target="_top" xlink:title=" ">
<polygon fill="white" stroke="#666666" points="718.11,-75.25 618.86,-75.25 618.86,-56 718.11,-56 718.11,-75.25"/>
<text xml:space="preserve" text-anchor="middle" x="668.49" y="-61.75" font-family="Helvetica,sans-Serif" font-size="10.00">process_single_file</text>
</a>
</g>
</g>
<!-- Node3&#45;&gt;Node11 -->
<g id="edge23_Node000003_Node000011" class="edge">
<title>Node3&#45;&gt;Node11</title>
<g id="a_edge23_Node000003_Node000011"><a xlink:title=" ">
<path fill="none" stroke="#63b8ff" d="M742.71,-65.62C734.44,-65.62 726.24,-65.62 718.48,-65.62"/>
<polygon fill="#63b8ff" stroke="#63b8ff" points="742.48,-69.13 752.48,-65.63 742.48,-62.13 742.48,-69.13"/>
</a>
</g>
</g>
<!-- Node4&#45;&gt;Node4 -->
<g id="edge20_Node000004_Node000004" class="edge">
<title>Node4&#45;&gt;Node4</title>
<g id="a_edge20_Node000004_Node000004"><a xlink:title=" ">
<path fill="none" stroke="#63b8ff" d="M692.56,-151.65C689.55,-155.53 681.53,-158.25 668.49,-158.25 644.65,-158.25 637.57,-149.15 647.26,-140.54"/>
<polygon fill="#63b8ff" stroke="#63b8ff" points="695.96,-150.83 690.1,-142 689.18,-152.56 695.96,-150.83"/>
</a>
</g>
</g>
<!-- Node5 -->
<g id="Node000005" class="node">
<title>Node5</title>
<g id="a_Node000005"><a xlink:href="scanner_8c.html#ad9b29fe28d49ec96c3633d683993adc2" target="_top" xlink:title=" ">
<polygon fill="white" stroke="#666666" points="582.86,-151.25 482.86,-151.25 482.86,-132 582.86,-132 582.86,-151.25"/>
<text xml:space="preserve" text-anchor="middle" x="532.86" y="-137.75" font-family="Helvetica,sans-Serif" font-size="10.00">dispatch_file_batch</text>
</a>
</g>
</g>
<!-- Node4&#45;&gt;Node5 -->
<g id="edge6_Node000004_Node000005" class="edge">
<title>Node4&#45;&gt;Node5</title>
<g id="a_edge6_Node000004_Node000005"><a xlink:title=" ">
<path fill="none" stroke="#63b8ff" d="M607.98,-135.52C599.61,-136.21 591.08,-136.91 582.93,-137.59"/>
<polygon fill="#63b8ff" stroke="#63b8ff" points="608.06,-139.03 617.74,-134.72 607.48,-132.05 608.06,-139.03"/>
</a>
</g>
</g>
<!-- Node6 -->
<g id="Node000006" class="node">
<title>Node6</title>
<g id="a_Node000006"><a xlink:href="scanner_8c.html#a536509c8cf0280038d9919ac3ef6ba6a" target="_top" xlink:title=" ">
<polygon fill="white" stroke="#666666" points="446.86,-113.25 337.86,-113.25 337.86,-94 446.86,-94 446.86,-113.25"/>
<text xml:space="preserve" text-anchor="middle" x="392.36" y="-99.75" font-family="Helvetica,sans-Serif" font-size="10.00">process_path_entries</text>
</a>
</g>
</g>
<!-- Node4&#45;&gt;Node6 -->
<g id="edge21_Node000004_Node000006" class="edge">
<title>Node4&#45;&gt;Node6</title>
<g id="a_edge21_Node000004_Node000006"><a xlink:title=" ">
<path fill="none" stroke="#63b8ff" d="M607.98,-124.76C560.06,-120.04 493.29,-113.47 447.01,-108.91"/>
<polygon fill="#63b8ff" stroke="#63b8ff" points="607.62,-128.25 617.92,-125.74 608.31,-121.28 607.62,-128.25"/>
</a>
</g>
</g>
<!-- Node8 -->
<g id="Node000008" class="node">
<title>Node8</title>
<g id="a_Node000008"><a xlink:href="scanner_8c.html#ae93b3dfe4302267aa496b5f50e5ef7a1" target="_top" xlink:title=" ">
<polygon fill="white" stroke="#666666" points="286.49,-193.25 214.99,-193.25 214.99,-174 286.49,-174 286.49,-193.25"/>
<text xml:space="preserve" text-anchor="middle" x="250.74" y="-179.75" font-family="Helvetica,sans-Serif" font-size="10.00">scan_worker</text>
</a>
</g>
</g>
<!-- Node4&#45;&gt;Node8 -->
<g id="edge22_Node000004_Node000008" class="edge">
<title>Node4&#45;&gt;Node8</title>
<g id="a_edge22_Node000004_Node000008"><a xlink:title=" ">
<path fill="none" stroke="#63b8ff" d="M645.44,-147.25C629.11,-158.49 605.81,-172.38 582.86,-178.62 478.29,-207.06 348.19,-196.33 286.85,-188.7"/>
<polygon fill="#63b8ff" stroke="#63b8ff" points="647.3,-150.22 653.4,-141.56 643.23,-144.52 647.3,-150.22"/>
</a>
</g>
</g>
<!-- Node5&#45;&gt;Node5 -->
<g id="edge7_Node000005_Node000005" class="edge">
<title>Node5&#45;&gt;Node5</title>
<g id="a_edge7_Node000005_Node000005"><a xlink:title=" ">
<path fill="none" stroke="#63b8ff" d="M556.94,-162.65C553.93,-166.53 545.9,-169.25 532.86,-169.25 509.02,-169.25 501.95,-160.15 511.63,-151.54"/>
<polygon fill="#63b8ff" stroke="#63b8ff" points="560.34,-161.83 554.47,-153 553.56,-163.56 560.34,-161.83"/>
</a>
</g>
</g>
<!-- Node5&#45;&gt;Node6 -->
<g id="edge8_Node000005_Node000006" class="edge">
<title>Node5&#45;&gt;Node6</title>
<g id="a_edge8_Node000005_Node000006"><a xlink:title=" ">
<path fill="none" stroke="#63b8ff" d="M484.07,-128.51C466.29,-123.63 446.41,-118.18 429.81,-113.62"/>
<polygon fill="#63b8ff" stroke="#63b8ff" points="483.08,-131.87 493.65,-131.14 484.93,-125.12 483.08,-131.87"/>
</a>
</g>
</g>
<!-- Node6&#45;&gt;Node6 -->
<g id="edge12_Node000006_Node000006" class="edge">
<title>Node6&#45;&gt;Node6</title>
<g id="a_edge12_Node000006_Node000006"><a xlink:title=" ">
<path fill="none" stroke="#63b8ff" d="M417.3,-124.65C414.18,-128.53 405.87,-131.25 392.36,-131.25 367.67,-131.25 360.33,-122.15 370.37,-113.54"/>
<polygon fill="#63b8ff" stroke="#63b8ff" points="420.69,-123.77 414.75,-115 413.92,-125.56 420.69,-123.77"/>
</a>
</g>
</g>
<!-- Node7 -->
<g id="Node000007" class="node">
<title>Node7</title>
<g id="a_Node000007"><a xlink:href="scanner_8c.html#a380782152628e81379f0c8533bb474b2" target="_top" xlink:title=" ">
<polygon fill="white" stroke="#666666" points="301.86,-99.25 199.61,-99.25 199.61,-80 301.86,-80 301.86,-99.25"/>
<text xml:space="preserve" text-anchor="middle" x="250.74" y="-85.75" font-family="Helvetica,sans-Serif" font-size="10.00">dispatch_child_path</text>
</a>
</g>
</g>
<!-- Node6&#45;&gt;Node7 -->
<g id="edge9_Node000006_Node000007" class="edge">
<title>Node6&#45;&gt;Node7</title>
<g id="a_edge9_Node000006_Node000007"><a xlink:title=" ">
<path fill="none" stroke="#63b8ff" d="M340.85,-92.04C328.27,-90.47 314.78,-89.12 302.2,-88.17"/>
<polygon fill="#63b8ff" stroke="#63b8ff" points="340.22,-95.49 350.6,-93.35 341.15,-88.55 340.22,-95.49"/>
</a>
</g>
</g>
<!-- Node6&#45;&gt;Node8 -->
<g id="edge13_Node000006_Node000008" class="edge">
<title>Node6&#45;&gt;Node8</title>
<g id="a_edge13_Node000006_Node000008"><a xlink:title=" ">
<path fill="none" stroke="#63b8ff" d="M366.9,-119.97C349.16,-131.57 324.42,-147.22 301.86,-159.62 292.9,-164.55 282.77,-169.52 273.97,-173.64"/>
<polygon fill="#63b8ff" stroke="#63b8ff" points="368.78,-122.93 375.21,-114.5 364.93,-117.08 368.78,-122.93"/>
</a>
</g>
</g>
<!-- Node9 -->
<g id="Node000009" class="node">
<title>Node9</title>
<g id="a_Node000009"><a xlink:href="scanner_8c.html#ac67cfd4d80fcfe70425d7c9ed929977b" target="_top" xlink:title=" ">
<polygon fill="white" stroke="#666666" points="163.61,-155.25 73.36,-155.25 73.36,-136 163.61,-136 163.61,-155.25"/>
<text xml:space="preserve" text-anchor="middle" x="118.49" y="-141.75" font-family="Helvetica,sans-Serif" font-size="10.00">scanner_execute</text>
</a>
</g>
</g>
<!-- Node6&#45;&gt;Node9 -->
<g id="edge19_Node000006_Node000009" class="edge">
<title>Node6&#45;&gt;Node9</title>
<g id="a_edge19_Node000006_Node000009"><a xlink:title=" ">
<path fill="none" stroke="#63b8ff" d="M346.27,-116.6C332.14,-120.29 316.44,-124.01 301.86,-126.62 255.18,-135.01 201.06,-140.07 163.97,-142.84"/>
<polygon fill="#63b8ff" stroke="#63b8ff" points="346.98,-120.03 355.74,-114.06 345.17,-113.27 346.98,-120.03"/>
</a>
</g>
</g>
<!-- Node7&#45;&gt;Node6 -->
<g id="edge11_Node000007_Node000006" class="edge">
<title>Node7&#45;&gt;Node6</title>
<g id="a_edge11_Node000007_Node000006"><a xlink:title=" ">
<path fill="none" stroke="#63b8ff" d="M302.37,-101.22C313.75,-102.64 325.87,-103.88 337.38,-104.81"/>
<polygon fill="#63b8ff" stroke="#63b8ff" points="303.16,-97.79 292.79,-99.94 302.24,-104.73 303.16,-97.79"/>
</a>
</g>
</g>
<!-- Node7&#45;&gt;Node7 -->
<g id="edge10_Node000007_Node000007" class="edge">
<title>Node7&#45;&gt;Node7</title>
<g id="a_edge10_Node000007_Node000007"><a xlink:title=" ">
<path fill="none" stroke="#63b8ff" d="M274.21,-110.65C271.28,-114.53 263.45,-117.25 250.74,-117.25 227.49,-117.25 220.59,-108.15 230.03,-99.54"/>
<polygon fill="#63b8ff" stroke="#63b8ff" points="277.62,-109.86 271.81,-101.01 270.83,-111.56 277.62,-109.86"/>
</a>
</g>
</g>
<!-- Node8&#45;&gt;Node8 -->
<g id="edge14_Node000008_Node000008" class="edge">
<title>Node8&#45;&gt;Node8</title>
<g id="a_edge14_Node000008_Node000008"><a xlink:title=" ">
<path fill="none" stroke="#63b8ff" d="M274.21,-204.65C271.28,-208.53 263.45,-211.25 250.74,-211.25 227.49,-211.25 220.59,-202.15 230.03,-193.54"/>
<polygon fill="#63b8ff" stroke="#63b8ff" points="277.62,-203.86 271.81,-195.01 270.83,-205.56 277.62,-203.86"/>
</a>
</g>
</g>
<!-- Node8&#45;&gt;Node9 -->
<g id="edge15_Node000008_Node000009" class="edge">
<title>Node8&#45;&gt;Node9</title>
<g id="a_edge15_Node000008_Node000009"><a xlink:title=" ">
<path fill="none" stroke="#63b8ff" d="M204.56,-170.44C187.89,-165.58 169.3,-160.16 153.76,-155.62"/>
<polygon fill="#63b8ff" stroke="#63b8ff" points="203.14,-173.68 213.72,-173.12 205.1,-166.96 203.14,-173.68"/>
</a>
</g>
</g>
<!-- Node9&#45;&gt;Node9 -->
<g id="edge18_Node000009_Node000009" class="edge">
<title>Node9&#45;&gt;Node9</title>
<g id="a_edge18_Node000009_Node000009"><a xlink:title=" ">
<path fill="none" stroke="#63b8ff" d="M136.17,-166.65C133.96,-170.53 128.07,-173.25 118.49,-173.25 100.98,-173.25 95.78,-164.15 102.89,-155.54"/>
<polygon fill="#63b8ff" stroke="#63b8ff" points="139.65,-166.21 134.36,-157.03 132.77,-167.5 139.65,-166.21"/>
</a>
</g>
</g>
<!-- Node10 -->
<g id="Node000010" class="node">
<title>Node10</title>
<g id="a_Node000010"><a xlink:href="main_8c.html#a5d474dbfbae98dbc733874c8062c4c10" target="_top" xlink:title=" ">
<polygon fill="white" stroke="#666666" points="37.36,-80.25 0.36,-80.25 0.36,-61 37.36,-61 37.36,-80.25"/>
<text xml:space="preserve" text-anchor="middle" x="18.86" y="-66.75" font-family="Helvetica,sans-Serif" font-size="10.00">main</text>
</a>
</g>
</g>
<!-- Node9&#45;&gt;Node10 -->
<g id="edge16_Node000009_Node000010" class="edge">
<title>Node9&#45;&gt;Node10</title>
<g id="a_edge16_Node000009_Node000010"><a xlink:title=" ">
<path fill="none" stroke="#63b8ff" d="M95.33,-128.6C76.04,-113.78 48.75,-92.82 32.82,-80.58"/>
<polygon fill="#63b8ff" stroke="#63b8ff" points="93.06,-131.27 103.12,-134.59 97.32,-125.72 93.06,-131.27"/>
</a>
</g>
</g>
<!-- Node10&#45;&gt;Node10 -->
<g id="edge17_Node000010_Node000010" class="edge">
<title>Node10&#45;&gt;Node10</title>
<g id="a_edge17_Node000010_Node000010"><a xlink:title=" ">
<path fill="none" stroke="#63b8ff" d="M36.55,-91.65C34.33,-95.53 28.44,-98.25 18.86,-98.25 1.35,-98.25 -3.85,-89.15 3.27,-80.54"/>
<polygon fill="#63b8ff" stroke="#63b8ff" points="40.02,-91.21 34.74,-82.03 33.14,-92.5 40.02,-91.21"/>
</a>
</g>
</g>
<!-- Node11&#45;&gt;Node6 -->
<g id="edge24_Node000011_Node000006" class="edge">
<title>Node11&#45;&gt;Node6</title>
<g id="a_edge24_Node000011_Node000006"><a xlink:title=" ">
<path fill="none" stroke="#63b8ff" d="M607.35,-73.96C559.51,-80.59 493.19,-89.79 447.11,-96.18"/>
<polygon fill="#63b8ff" stroke="#63b8ff" points="607.56,-77.47 616.98,-72.63 606.6,-70.53 607.56,-77.47"/>
</a>
</g>
</g>
<!-- Node11&#45;&gt;Node11 -->
<g id="edge25_Node000011_Node000011" class="edge">
<title>Node11&#45;&gt;Node11</title>
<g id="a_edge25_Node000011_Node000011"><a xlink:title=" ">
<path fill="none" stroke="#63b8ff" d="M692.56,-86.65C689.55,-90.53 681.53,-93.25 668.49,-93.25 644.65,-93.25 637.57,-84.15 647.26,-75.54"/>
<polygon fill="#63b8ff" stroke="#63b8ff" points="695.96,-85.83 690.1,-77 689.18,-87.56 695.96,-85.83"/>
</a>
</g>
</g>
<!-- Node12&#45;&gt;Node12 -->
<g id="edge31_Node000012_Node000012" class="edge">
<title>Node12&#45;&gt;Node12</title>
<g id="a_edge31_Node000012_Node000012"><a xlink:title=" ">
<path fill="none" stroke="#63b8ff" d="M1023.55,-31.32C1020.46,-35.37 1011.52,-38.25 996.74,-38.25 970.46,-38.25 962.66,-29.15 973.33,-20.54"/>
<polygon fill="#63b8ff" stroke="#63b8ff" points="1026.95,-30.46 1020.6,-21.98 1020.27,-32.57 1026.95,-30.46"/>
</a>
</g>
</g>
<!-- Node13 -->
<g id="Node000013" class="node">
<title>Node13</title>
<g id="a_Node000013"><a xlink:href="db_8c.html#ab8b8244e899cd5f18455d3ff2e31c6ba" target="_top" xlink:title=" ">
<polygon fill="white" stroke="#666666" points="559.24,-19.25 506.49,-19.25 506.49,0 559.24,0 559.24,-19.25"/>
<text xml:space="preserve" text-anchor="middle" x="532.86" y="-5.75" font-family="Helvetica,sans-Serif" font-size="10.00">db_open</text>
</a>
</g>
</g>
<!-- Node12&#45;&gt;Node13 -->
<g id="edge28_Node000012_Node000013" class="edge">
<title>Node12&#45;&gt;Node13</title>
<g id="a_edge28_Node000012_Node000013"><a xlink:title=" ">
<path fill="none" stroke="#63b8ff" d="M921.96,-10.47C816.6,-10.24 628.2,-9.83 559.68,-9.68"/>
<polygon fill="#63b8ff" stroke="#63b8ff" points="921.93,-13.97 931.93,-10.49 921.94,-6.97 921.93,-13.97"/>
</a>
</g>
</g>
<!-- Node13&#45;&gt;Node10 -->
<g id="edge30_Node000013_Node000010" class="edge">
<title>Node13&#45;&gt;Node10</title>
<g id="a_edge30_Node000013_Node000010"><a xlink:title=" ">
<path fill="none" stroke="#63b8ff" d="M494.91,-14.03C393.16,-26.15 111.58,-59.7 37.77,-68.49"/>
<polygon fill="#63b8ff" stroke="#63b8ff" points="495.1,-17.53 504.62,-12.87 494.28,-10.58 495.1,-17.53"/>
</a>
</g>
</g>
<!-- Node13&#45;&gt;Node13 -->
<g id="edge29_Node000013_Node000013" class="edge">
<title>Node13&#45;&gt;Node13</title>
<g id="a_edge29_Node000013_Node000013"><a xlink:title=" ">
<path fill="none" stroke="#63b8ff" d="M556.94,-30.65C553.93,-34.53 545.9,-37.25 532.86,-37.25 509.02,-37.25 501.95,-28.15 511.63,-19.54"/>
<polygon fill="#63b8ff" stroke="#63b8ff" points="560.34,-29.83 554.47,-21 553.56,-31.56 560.34,-29.83"/>
</a>
</g>
</g>
</g>
</svg>
