<?xml version="1.0" encoding="UTF-8" standalone="no"?>
<!DOCTYPE svg PUBLIC "-//W3C//DTD SVG 1.1//EN"
 "http://www.w3.org/Graphics/SVG/1.1/DTD/svg11.dtd">
<!-- Generated by graphviz version 16.1.0 (20260904.0139)
 -->
<!-- Title: handle_target_mutation Pages: 1 -->
<svg width="566pt" height="326pt"
 viewBox="0.00 0.00 566.00 326.00" xmlns="http://www.w3.org/2000/svg" xmlns:xlink="http://www.w3.org/1999/xlink">
<g id="graph0" class="graph" transform="scale(1 1) rotate(0) translate(4 322.25)">
<title>handle_target_mutation</title>
<!-- Node1 -->
<g id="Node000001" class="node">
<title>Node1</title>
<g id="a_Node000001"><a xlink:title=" ">
<polygon fill="#999999" stroke="#666666" points="117.25,-206.25 0,-206.25 0,-187 117.25,-187 117.25,-206.25"/>
<text xml:space="preserve" text-anchor="middle" x="58.62" y="-192.75" font-family="Helvetica,sans-Serif" font-size="10.00">handle_target_mutation</text>
</a>
</g>
</g>
<!-- Node1&#45;&gt;Node1 -->
<g id="edge20_Node000001_Node000001" class="edge">
<title>Node1&#45;&gt;Node1</title>
<g id="a_edge20_Node000001_Node000001"><a xlink:title=" ">
<path fill="none" stroke="#63b8ff" d="M35.22,-206.54C24.54,-215.15 32.35,-224.25 58.62,-224.25 73.41,-224.25 82.34,-221.37 85.43,-217.32"/>
<polygon fill="#63b8ff" stroke="#63b8ff" points="88.83,-216.46 82.49,-207.98 82.16,-218.57 88.83,-216.46"/>
</a>
</g>
</g>
<!-- Node2 -->
<g id="Node000002" class="node">
<title>Node2</title>
<g id="a_Node000002"><a xlink:href="config_8c.html#a5056ded5e891cc404778efd9b905c0ef" target="_top" xlink:title=" ">
<polygon fill="white" stroke="#666666" points="254.75,-300.25 161.5,-300.25 161.5,-281 254.75,-281 254.75,-300.25"/>
<text xml:space="preserve" text-anchor="middle" x="208.12" y="-286.75" font-family="Helvetica,sans-Serif" font-size="10.00">config_add_target</text>
</a>
</g>
</g>
<!-- Node1&#45;&gt;Node2 -->
<g id="edge1_Node000001_Node000002" class="edge">
<title>Node1&#45;&gt;Node2</title>
<g id="a_edge1_Node000001_Node000002"><a xlink:title=" ">
<path fill="none" stroke="#63b8ff" d="M71.15,-206.58C88.25,-221.04 121.74,-248.14 153.25,-266.62 158.91,-269.94 165.11,-273.11 171.22,-275.98"/>
<polygon fill="#63b8ff" stroke="#63b8ff" points="169.39,-278.99 179.95,-279.9 172.26,-272.61 169.39,-278.99"/>
</a>
</g>
</g>
<!-- Node3 -->
<g id="Node000003" class="node">
<title>Node3</title>
<g id="a_Node000003"><a xlink:href="config_8c.html#aabc29d525131052091aa774d53b693f1" target="_top" xlink:title=" ">
<polygon fill="white" stroke="#666666" points="558.25,-224.25 455.25,-224.25 455.25,-205 558.25,-205 558.25,-224.25"/>
<text xml:space="preserve" text-anchor="middle" x="506.75" y="-210.75" font-family="Helvetica,sans-Serif" font-size="10.00">config_expand_path</text>
</a>
</g>
</g>
<!-- Node1&#45;&gt;Node3 -->
<g id="edge5_Node000001_Node000003" class="edge">
<title>Node1&#45;&gt;Node3</title>
<g id="a_edge5_Node000001_Node000003"><a xlink:title=" ">
<path fill="none" stroke="#63b8ff" d="M78.71,-206.64C97.19,-215.74 126.29,-228.49 153.25,-233.62 254.4,-252.89 374.61,-238.68 445.3,-226.64"/>
<polygon fill="#63b8ff" stroke="#63b8ff" points="445.47,-230.17 454.72,-224.99 444.26,-223.27 445.47,-230.17"/>
</a>
</g>
</g>
<!-- Node4 -->
<g id="Node000004" class="node">
<title>Node4</title>
<g id="a_Node000004"><a xlink:href="config_8c.html#af04f0d7e07ffef941043214f0dc0fa0f" target="_top" xlink:title=" ">
<polygon fill="white" stroke="#666666" points="418.88,-168.25 299.38,-168.25 299.38,-149 418.88,-149 418.88,-168.25"/>
<text xml:space="preserve" text-anchor="middle" x="359.12" y="-154.75" font-family="Helvetica,sans-Serif" font-size="10.00">config_get_default_path</text>
</a>
</g>
</g>
<!-- Node1&#45;&gt;Node4 -->
<g id="edge6_Node000001_Node000004" class="edge">
<title>Node1&#45;&gt;Node4</title>
<g id="a_edge6_Node000001_Node000004"><a xlink:title=" ">
<path fill="none" stroke="#63b8ff" d="M104.22,-186.55C119.68,-183.34 137.17,-180 153.25,-177.62 197.8,-171.06 248.15,-166.35 287.79,-163.27"/>
<polygon fill="#63b8ff" stroke="#63b8ff" points="287.98,-166.76 297.69,-162.51 287.45,-159.78 287.98,-166.76"/>
</a>
</g>
</g>
<!-- Node5 -->
<g id="Node000005" class="node">
<title>Node5</title>
<g id="a_Node000005"><a xlink:href="config_8c.html#aa8a93ed9038cb410376878bddf37f7aa" target="_top" xlink:title=" ">
<polygon fill="white" stroke="#666666" points="263,-206.25 153.25,-206.25 153.25,-187 263,-187 263,-206.25"/>
<text xml:space="preserve" text-anchor="middle" x="208.12" y="-192.75" font-family="Helvetica,sans-Serif" font-size="10.00">config_remove_target</text>
</a>
</g>
</g>
<!-- Node1&#45;&gt;Node5 -->
<g id="edge9_Node000001_Node000005" class="edge">
<title>Node1&#45;&gt;Node5</title>
<g id="a_edge9_Node000001_Node000005"><a xlink:title=" ">
<path fill="none" stroke="#63b8ff" d="M117.5,-196.62C125.31,-196.62 133.36,-196.62 141.3,-196.62"/>
<polygon fill="#63b8ff" stroke="#63b8ff" points="141.28,-200.13 151.28,-196.63 141.28,-193.13 141.28,-200.13"/>
</a>
</g>
</g>
<!-- Node6 -->
<g id="Node000006" class="node">
<title>Node6</title>
<g id="a_Node000006"><a xlink:href="config_8c.html#a17590d5bcc42e1f2e20ce8b0c4a8b39c" target="_top" xlink:title=" ">
<polygon fill="white" stroke="#666666" points="242.38,-112.25 173.88,-112.25 173.88,-93 242.38,-93 242.38,-112.25"/>
<text xml:space="preserve" text-anchor="middle" x="208.12" y="-98.75" font-family="Helvetica,sans-Serif" font-size="10.00">config_save</text>
</a>
</g>
</g>
<!-- Node1&#45;&gt;Node6 -->
<g id="edge12_Node000001_Node000006" class="edge">
<title>Node1&#45;&gt;Node6</title>
<g id="a_edge12_Node000001_Node000006"><a xlink:title=" ">
<path fill="none" stroke="#63b8ff" d="M75.41,-186.57C100.92,-170.31 151.41,-138.13 181.93,-118.68"/>
<polygon fill="#63b8ff" stroke="#63b8ff" points="183.62,-121.75 190.18,-113.43 179.86,-115.85 183.62,-121.75"/>
</a>
</g>
</g>
<!-- Node2&#45;&gt;Node2 -->
<g id="edge2_Node000002_Node000002" class="edge">
<title>Node2&#45;&gt;Node2</title>
<g id="a_edge2_Node000002_Node000002"><a xlink:title=" ">
<path fill="none" stroke="#63b8ff" d="M184.72,-300.54C174.04,-309.15 181.85,-318.25 208.12,-318.25 222.91,-318.25 231.84,-315.37 234.93,-311.32"/>
<polygon fill="#63b8ff" stroke="#63b8ff" points="238.33,-310.46 231.99,-301.98 231.66,-312.57 238.33,-310.46"/>
</a>
</g>
</g>
<!-- Node2&#45;&gt;Node3 -->
<g id="edge3_Node000002_Node000003" class="edge">
<title>Node2&#45;&gt;Node3</title>
<g id="a_edge3_Node000002_Node000003"><a xlink:title=" ">
<path fill="none" stroke="#63b8ff" d="M255.02,-290.94C298.43,-289.96 364.84,-285.11 419.25,-266.62 443.1,-258.52 467.45,-243.12 484.21,-231.17"/>
<polygon fill="#63b8ff" stroke="#63b8ff" points="485.93,-234.25 491.92,-225.51 481.79,-228.61 485.93,-234.25"/>
</a>
</g>
</g>
<!-- Node3&#45;&gt;Node3 -->
<g id="edge4_Node000003_Node000003" class="edge">
<title>Node3&#45;&gt;Node3</title>
<g id="a_edge4_Node000003_Node000003"><a xlink:title=" ">
<path fill="none" stroke="#63b8ff" d="M483.64,-224.54C473.1,-233.15 480.8,-242.25 506.75,-242.25 521.35,-242.25 530.17,-239.37 533.22,-235.32"/>
<polygon fill="#63b8ff" stroke="#63b8ff" points="536.63,-234.49 530.31,-225.98 529.95,-236.57 536.63,-234.49"/>
</a>
</g>
</g>
<!-- Node4&#45;&gt;Node3 -->
<g id="edge7_Node000004_Node000003" class="edge">
<title>Node4&#45;&gt;Node3</title>
<g id="a_edge7_Node000004_Node000003"><a xlink:title=" ">
<path fill="none" stroke="#63b8ff" d="M386.16,-168.64C409.21,-177.5 443.11,-190.54 468.93,-200.47"/>
<polygon fill="#63b8ff" stroke="#63b8ff" points="467.45,-203.65 478.04,-203.97 469.96,-197.11 467.45,-203.65"/>
</a>
</g>
</g>
<!-- Node4&#45;&gt;Node4 -->
<g id="edge8_Node000004_Node000004" class="edge">
<title>Node4&#45;&gt;Node4</title>
<g id="a_edge8_Node000004_Node000004"><a xlink:title=" ">
<path fill="none" stroke="#63b8ff" d="M336.01,-168.54C325.47,-177.15 333.18,-186.25 359.12,-186.25 373.72,-186.25 382.55,-183.37 385.6,-179.32"/>
<polygon fill="#63b8ff" stroke="#63b8ff" points="389,-178.49 382.69,-169.98 382.32,-180.57 389,-178.49"/>
</a>
</g>
</g>
<!-- Node5&#45;&gt;Node3 -->
<g id="edge10_Node000005_Node000003" class="edge">
<title>Node5&#45;&gt;Node3</title>
<g id="a_edge10_Node000005_Node000003"><a xlink:title=" ">
<path fill="none" stroke="#63b8ff" d="M263.19,-199.91C314.09,-202.99 390.3,-207.62 443.67,-210.86"/>
<polygon fill="#63b8ff" stroke="#63b8ff" points="443.33,-214.34 453.52,-211.46 443.75,-207.36 443.33,-214.34"/>
</a>
</g>
</g>
<!-- Node5&#45;&gt;Node5 -->
<g id="edge11_Node000005_Node000005" class="edge">
<title>Node5&#45;&gt;Node5</title>
<g id="a_edge11_Node000005_Node000005"><a xlink:title=" ">
<path fill="none" stroke="#63b8ff" d="M184.72,-206.54C174.04,-215.15 181.85,-224.25 208.12,-224.25 222.91,-224.25 231.84,-221.37 234.93,-217.32"/>
<polygon fill="#63b8ff" stroke="#63b8ff" points="238.33,-216.46 231.99,-207.98 231.66,-218.57 238.33,-216.46"/>
</a>
</g>
</g>
<!-- Node6&#45;&gt;Node3 -->
<g id="edge15_Node000006_Node000003" class="edge">
<title>Node6&#45;&gt;Node3</title>
<g id="a_edge15_Node000006_Node000003"><a xlink:title=" ">
<path fill="none" stroke="#63b8ff" d="M232.88,-92.61C273.69,-77.06 358.58,-52.12 419.25,-84.62 462.71,-107.91 488.07,-163.72 499.12,-194.09"/>
<polygon fill="#63b8ff" stroke="#63b8ff" points="495.72,-194.95 502.28,-203.27 502.34,-192.68 495.72,-194.95"/>
</a>
</g>
</g>
<!-- Node6&#45;&gt;Node4 -->
<g id="edge16_Node000006_Node000004" class="edge">
<title>Node6&#45;&gt;Node4</title>
<g id="a_edge16_Node000006_Node000004"><a xlink:title=" ">
<path fill="none" stroke="#63b8ff" d="M231.03,-112.65C249.07,-120.71 275.43,-132.08 299,-140.62 303.19,-142.14 307.58,-143.65 311.99,-145.09"/>
<polygon fill="#63b8ff" stroke="#63b8ff" points="310.88,-148.41 321.47,-148.11 313,-141.74 310.88,-148.41"/>
</a>
</g>
</g>
<!-- Node6&#45;&gt;Node6 -->
<g id="edge17_Node000006_Node000006" class="edge">
<title>Node6&#45;&gt;Node6</title>
<g id="a_edge17_Node000006_Node000006"><a xlink:title=" ">
<path fill="none" stroke="#63b8ff" d="M184.72,-112.54C174.04,-121.15 181.85,-130.25 208.12,-130.25 222.91,-130.25 231.84,-127.37 234.93,-123.32"/>
<polygon fill="#63b8ff" stroke="#63b8ff" points="238.33,-122.46 231.99,-113.98 231.66,-124.57 238.33,-122.46"/>
</a>
</g>
</g>
<!-- Node7 -->
<g id="Node000007" class="node">
<title>Node7</title>
<g id="a_Node000007"><a xlink:href="config_8c.html#a992ec14c03b63f5be1fc9d74de33fae5" target="_top" xlink:title=" ">
<polygon fill="white" stroke="#666666" points="414.75,-19.25 303.5,-19.25 303.5,0 414.75,0 414.75,-19.25"/>
<text xml:space="preserve" text-anchor="middle" x="359.12" y="-5.75" font-family="Helvetica,sans-Serif" font-size="10.00">add_json_string_array</text>
</a>
</g>
</g>
<!-- Node6&#45;&gt;Node7 -->
<g id="edge13_Node000006_Node000007" class="edge">
<title>Node6&#45;&gt;Node7</title>
<g id="a_edge13_Node000006_Node000007"><a xlink:title=" ">
<path fill="none" stroke="#63b8ff" d="M225.07,-92.67C250.84,-76.59 301.84,-44.75 332.68,-25.51"/>
<polygon fill="#63b8ff" stroke="#63b8ff" points="334.38,-28.57 341.01,-20.31 330.67,-22.63 334.38,-28.57"/>
</a>
</g>
</g>
<!-- Node8 -->
<g id="Node000008" class="node">
<title>Node8</title>
<g id="a_Node000008"><a xlink:href="config_8c.html#a30ab3cc14eb1a300080ab89616aa3551" target="_top" xlink:title=" ">
<polygon fill="white" stroke="#666666" points="419.25,-113.25 299,-113.25 299,-94 419.25,-94 419.25,-113.25"/>
<text xml:space="preserve" text-anchor="middle" x="359.12" y="-99.75" font-family="Helvetica,sans-Serif" font-size="10.00">ensure_parent_directory</text>
</a>
</g>
</g>
<!-- Node6&#45;&gt;Node8 -->
<g id="edge18_Node000006_Node000008" class="edge">
<title>Node6&#45;&gt;Node8</title>
<g id="a_edge18_Node000006_Node000008"><a xlink:title=" ">
<path fill="none" stroke="#63b8ff" d="M242.56,-102.85C255.89,-102.94 271.76,-103.05 287.41,-103.15"/>
<polygon fill="#63b8ff" stroke="#63b8ff" points="287.19,-106.65 297.22,-103.22 287.24,-99.65 287.19,-106.65"/>
</a>
</g>
</g>
<!-- Node7&#45;&gt;Node7 -->
<g id="edge14_Node000007_Node000007" class="edge">
<title>Node7&#45;&gt;Node7</title>
<g id="a_edge14_Node000007_Node000007"><a xlink:title=" ">
<path fill="none" stroke="#63b8ff" d="M336.01,-19.54C325.47,-28.15 333.18,-37.25 359.12,-37.25 373.72,-37.25 382.55,-34.37 385.6,-30.32"/>
<polygon fill="#63b8ff" stroke="#63b8ff" points="389,-29.49 382.69,-20.98 382.32,-31.57 389,-29.49"/>
</a>
</g>
</g>
<!-- Node8&#45;&gt;Node8 -->
<g id="edge19_Node000008_Node000008" class="edge">
<title>Node8&#45;&gt;Node8</title>
<g id="a_edge19_Node000008_Node000008"><a xlink:title=" ">
<path fill="none" stroke="#63b8ff" d="M336.01,-113.54C325.47,-122.15 333.18,-131.25 359.12,-131.25 373.72,-131.25 382.55,-128.37 385.6,-124.32"/>
<polygon fill="#63b8ff" stroke="#63b8ff" points="389,-123.49 382.69,-114.98 382.32,-125.57 389,-123.49"/>
</a>
</g>
</g>
</g>
</svg>
