<?xml version="1.0" encoding="UTF-8" standalone="no"?>
<!DOCTYPE svg PUBLIC "-//W3C//DTD SVG 1.1//EN"
 "http://www.w3.org/Graphics/SVG/1.1/DTD/svg11.dtd">
<!-- Generated by graphviz version 16.1.0 (20260904.0139)
 -->
<!-- Title: report_print_report Pages: 1 -->
<svg width="400pt" height="414pt"
 viewBox="0.00 0.00 400.00 414.00" xmlns="http://www.w3.org/2000/svg" xmlns:xlink="http://www.w3.org/1999/xlink">

<svg id="main" version="1.1" xmlns="http://www.w3.org/2000/svg" xmlns:xlink="http://www.w3.org/1999/xlink" xml:space="preserve">

<style type="text/css"><![CDATA[
.node, .edge {opacity: 0.7;}
.node.selected, .edge.selected {opacity: 1;}
.edge:hover path { stroke: red; }
.edge:hover polygon { stroke: red; fill: red; }
]]></style>
<script type="application/ecmascript" xlink:href="svg.min.js"/>
<svg id="graph" class="graph">
<g id="graph0" class="graph" transform="scale(1 1) rotate(0) translate(4 410.25)">
<title>report_print_report</title>
<!-- Node1 -->
<g id="Node000001" class="node">
<title>Node1</title>
<g id="a_Node000001"><a xlink:title=" ">
<polygon fill="#999999" stroke="#666666" points="94.75,-195.25 0,-195.25 0,-176 94.75,-176 94.75,-195.25"/>
<text xml:space="preserve" text-anchor="middle" x="47.38" y="-181.75" font-family="Helvetica,sans-Serif" font-size="10.00">report_print_report</text>
</a>
</g>
</g>
<!-- Node1&#45;&gt;Node1 -->
<g id="edge18_Node000001_Node000001" class="edge">
<title>Node1&#45;&gt;Node1</title>
<g id="a_edge18_Node000001_Node000001"><a xlink:title=" ">
<path fill="none" stroke="#63b8ff" d="M24.73,-195.54C14.41,-204.15 21.95,-213.25 47.38,-213.25 61.68,-213.25 70.32,-210.37 73.31,-206.32"/>
<polygon fill="#63b8ff" stroke="#63b8ff" points="76.73,-205.53 70.46,-196.99 70.03,-207.57 76.73,-205.53"/>
</a>
</g>
</g>
<!-- Node2 -->
<g id="Node000002" class="node">
<title>Node2</title>
<g id="a_Node000002"><a xlink:href="db_8c.html#a8e46f91484deb7d5d70f43301912a122" target="_top" xlink:title=" ">
<polygon fill="white" stroke="#666666" points="253.25,-388.25 130.75,-388.25 130.75,-369 253.25,-369 253.25,-388.25"/>
<text xml:space="preserve" text-anchor="middle" x="192" y="-374.75" font-family="Helvetica,sans-Serif" font-size="10.00">db_free_extension_stats</text>
</a>
</g>
</g>
<!-- Node1&#45;&gt;Node2 -->
<g id="edge1_Node000001_Node000002" class="edge">
<title>Node1&#45;&gt;Node2</title>
<g id="a_edge1_Node000001_Node000002"><a xlink:title=" ">
<path fill="none" stroke="#63b8ff" d="M50.14,-195.66C55.91,-225.49 77.04,-314.41 130.75,-360.62 131.68,-361.43 132.65,-362.19 133.64,-362.92"/>
<polygon fill="#63b8ff" stroke="#63b8ff" points="131.58,-365.77 141.97,-367.86 135.15,-359.75 131.58,-365.77"/>
</a>
</g>
</g>
<!-- Node3 -->
<g id="Node000003" class="node">
<title>Node3</title>
<g id="a_Node000003"><a xlink:href="db_8c.html#a2d21d6d34c097772f2ca892b236d01e9" target="_top" xlink:title=" ">
<polygon fill="white" stroke="#666666" points="244.25,-333.25 139.75,-333.25 139.75,-314 244.25,-314 244.25,-333.25"/>
<text xml:space="preserve" text-anchor="middle" x="192" y="-319.75" font-family="Helvetica,sans-Serif" font-size="10.00">db_free_recent_runs</text>
</a>
</g>
</g>
<!-- Node1&#45;&gt;Node3 -->
<g id="edge3_Node000001_Node000003" class="edge">
<title>Node1&#45;&gt;Node3</title>
<g id="a_edge3_Node000001_Node000003"><a xlink:title=" ">
<path fill="none" stroke="#63b8ff" d="M52.46,-195.72C62.33,-218.79 89.7,-275.71 130.75,-305.62 132.1,-306.61 133.51,-307.54 134.95,-308.42"/>
<polygon fill="#63b8ff" stroke="#63b8ff" points="133.16,-311.43 143.66,-312.84 136.33,-305.19 133.16,-311.43"/>
</a>
</g>
</g>
<!-- Node4 -->
<g id="Node000004" class="node">
<title>Node4</title>
<g id="a_Node000004"><a xlink:href="db_8c.html#a8343108a7aa1267c4a0f6a93f43d30a7" target="_top" xlink:title=" ">
<polygon fill="white" stroke="#666666" points="241.25,-278.25 142.75,-278.25 142.75,-259 241.25,-259 241.25,-278.25"/>
<text xml:space="preserve" text-anchor="middle" x="192" y="-264.75" font-family="Helvetica,sans-Serif" font-size="10.00">db_free_top_saved</text>
</a>
</g>
</g>
<!-- Node1&#45;&gt;Node4 -->
<g id="edge5_Node000001_Node000004" class="edge">
<title>Node1&#45;&gt;Node4</title>
<g id="a_edge5_Node000001_Node000004"><a xlink:title=" ">
<path fill="none" stroke="#63b8ff" d="M58.15,-195.41C72.75,-209.51 101.65,-235.51 130.75,-250.62 133.43,-252.02 136.23,-253.32 139.1,-254.53"/>
<polygon fill="#63b8ff" stroke="#63b8ff" points="137.66,-257.73 148.25,-258.01 140.15,-251.19 137.66,-257.73"/>
</a>
</g>
</g>
<!-- Node5 -->
<g id="Node000005" class="node">
<title>Node5</title>
<g id="a_Node000005"><a xlink:href="db_8c.html#a9bf2a02c1b8e77bc9a8d31b319557906" target="_top" xlink:title=" ">
<polygon fill="white" stroke="#666666" points="251.75,-223.25 132.25,-223.25 132.25,-204 251.75,-204 251.75,-223.25"/>
<text xml:space="preserve" text-anchor="middle" x="192" y="-209.75" font-family="Helvetica,sans-Serif" font-size="10.00">db_get_extension_stats</text>
</a>
</g>
</g>
<!-- Node1&#45;&gt;Node5 -->
<g id="edge7_Node000001_Node000005" class="edge">
<title>Node1&#45;&gt;Node5</title>
<g id="a_edge7_Node000001_Node000005"><a xlink:title=" ">
<path fill="none" stroke="#63b8ff" d="M95.08,-194.79C105.8,-196.9 117.37,-199.17 128.64,-201.38"/>
<polygon fill="#63b8ff" stroke="#63b8ff" points="127.79,-204.78 138.28,-203.27 129.14,-197.91 127.79,-204.78"/>
</a>
</g>
</g>
<!-- Node7 -->
<g id="Node000007" class="node">
<title>Node7</title>
<g id="a_Node000007"><a xlink:href="db_8c.html#aecbd2ff6bdefefc3ba1919074936c8aa" target="_top" xlink:title=" ">
<polygon fill="white" stroke="#666666" points="242.75,-168.25 141.25,-168.25 141.25,-149 242.75,-149 242.75,-168.25"/>
<text xml:space="preserve" text-anchor="middle" x="192" y="-154.75" font-family="Helvetica,sans-Serif" font-size="10.00">db_get_recent_runs</text>
</a>
</g>
</g>
<!-- Node1&#45;&gt;Node7 -->
<g id="edge11_Node000001_Node000007" class="edge">
<title>Node1&#45;&gt;Node7</title>
<g id="a_edge11_Node000001_Node000007"><a xlink:title=" ">
<path fill="none" stroke="#63b8ff" d="M95.08,-176.78C106.16,-174.69 118.14,-172.42 129.76,-170.22"/>
<polygon fill="#63b8ff" stroke="#63b8ff" points="130.09,-173.72 139.27,-168.42 128.79,-166.84 130.09,-173.72"/>
</a>
</g>
</g>
<!-- Node8 -->
<g id="Node000008" class="node">
<title>Node8</title>
<g id="a_Node000008"><a xlink:href="db_8c.html#a3ae2b1043178e122e9fb062a95936bd0" target="_top" xlink:title=" ">
<polygon fill="white" stroke="#666666" points="239.75,-113.25 144.25,-113.25 144.25,-94 239.75,-94 239.75,-113.25"/>
<text xml:space="preserve" text-anchor="middle" x="192" y="-99.75" font-family="Helvetica,sans-Serif" font-size="10.00">db_get_top_saved</text>
</a>
</g>
</g>
<!-- Node1&#45;&gt;Node8 -->
<g id="edge13_Node000001_Node000008" class="edge">
<title>Node1&#45;&gt;Node8</title>
<g id="a_edge13_Node000001_Node000008"><a xlink:title=" ">
<path fill="none" stroke="#63b8ff" d="M65.86,-175.57C90.38,-161.48 135.17,-135.72 163.99,-119.16"/>
<polygon fill="#63b8ff" stroke="#63b8ff" points="165.58,-122.28 172.5,-114.26 162.09,-116.21 165.58,-122.28"/>
</a>
</g>
</g>
<!-- Node9 -->
<g id="Node000009" class="node">
<title>Node9</title>
<g id="a_Node000009"><a xlink:href="report_8c.html#acb1cca0af82e6a094263e9f372cdeef6" target="_top" xlink:title=" ">
<polygon fill="white" stroke="#666666" points="392.25,-74.25 289.25,-74.25 289.25,-55 392.25,-55 392.25,-74.25"/>
<text xml:space="preserve" text-anchor="middle" x="340.75" y="-60.75" font-family="Helvetica,sans-Serif" font-size="10.00">report_format_bytes</text>
</a>
</g>
</g>
<!-- Node1&#45;&gt;Node9 -->
<g id="edge16_Node000001_Node000009" class="edge">
<title>Node1&#45;&gt;Node9</title>
<g id="a_edge16_Node000001_Node000009"><a xlink:title=" ">
<path fill="none" stroke="#63b8ff" d="M53.06,-175.67C63.57,-154.62 91.24,-105.75 130.75,-84.62 175.75,-60.56 234.03,-56.84 277.61,-58.4"/>
<polygon fill="#63b8ff" stroke="#63b8ff" points="277.26,-61.89 287.41,-58.86 277.59,-54.9 277.26,-61.89"/>
</a>
</g>
</g>
<!-- Node10 -->
<g id="Node000010" class="node">
<title>Node10</title>
<g id="a_Node000010"><a xlink:href="report_8c.html#a7eb3741ae1d2331956643d4ef555e553" target="_top" xlink:title=" ">
<polygon fill="white" stroke="#666666" points="240.5,-19.25 143.5,-19.25 143.5,0 240.5,0 240.5,-19.25"/>
<text xml:space="preserve" text-anchor="middle" x="192" y="-5.75" font-family="Helvetica,sans-Serif" font-size="10.00">report_print_status</text>
</a>
</g>
</g>
<!-- Node1&#45;&gt;Node10 -->
<g id="edge19_Node000001_Node000010" class="edge">
<title>Node1&#45;&gt;Node10</title>
<g id="a_edge19_Node000001_Node000010"><a xlink:title=" ">
<path fill="none" stroke="#63b8ff" d="M52.77,-175.61C63.49,-151.98 92.88,-91.74 130.75,-51.62 140.13,-41.69 152.22,-32.71 163.1,-25.63"/>
<polygon fill="#63b8ff" stroke="#63b8ff" points="164.72,-28.74 171.36,-20.48 161.02,-22.8 164.72,-28.74"/>
</a>
</g>
</g>
<!-- Node2&#45;&gt;Node2 -->
<g id="edge2_Node000002_Node000002" class="edge">
<title>Node2&#45;&gt;Node2</title>
<g id="a_edge2_Node000002_Node000002"><a xlink:title=" ">
<path fill="none" stroke="#63b8ff" d="M169.36,-388.54C159.03,-397.15 166.58,-406.25 192,-406.25 206.3,-406.25 214.94,-403.37 217.93,-399.32"/>
<polygon fill="#63b8ff" stroke="#63b8ff" points="221.35,-398.53 215.08,-389.99 214.66,-400.57 221.35,-398.53"/>
</a>
</g>
</g>
<!-- Node3&#45;&gt;Node3 -->
<g id="edge4_Node000003_Node000003" class="edge">
<title>Node3&#45;&gt;Node3</title>
<g id="a_edge4_Node000003_Node000003"><a xlink:title=" ">
<path fill="none" stroke="#63b8ff" d="M169.36,-333.54C159.03,-342.15 166.58,-351.25 192,-351.25 206.3,-351.25 214.94,-348.37 217.93,-344.32"/>
<polygon fill="#63b8ff" stroke="#63b8ff" points="221.35,-343.53 215.08,-334.99 214.66,-345.57 221.35,-343.53"/>
</a>
</g>
</g>
<!-- Node4&#45;&gt;Node4 -->
<g id="edge6_Node000004_Node000004" class="edge">
<title>Node4&#45;&gt;Node4</title>
<g id="a_edge6_Node000004_Node000004"><a xlink:title=" ">
<path fill="none" stroke="#63b8ff" d="M169.36,-278.54C159.03,-287.15 166.58,-296.25 192,-296.25 206.3,-296.25 214.94,-293.37 217.93,-289.32"/>
<polygon fill="#63b8ff" stroke="#63b8ff" points="221.35,-288.53 215.08,-279.99 214.66,-290.57 221.35,-288.53"/>
</a>
</g>
</g>
<!-- Node5&#45;&gt;Node5 -->
<g id="edge8_Node000005_Node000005" class="edge">
<title>Node5&#45;&gt;Node5</title>
<g id="a_edge8_Node000005_Node000005"><a xlink:title=" ">
<path fill="none" stroke="#63b8ff" d="M169.36,-223.54C159.03,-232.15 166.58,-241.25 192,-241.25 206.3,-241.25 214.94,-238.37 217.93,-234.32"/>
<polygon fill="#63b8ff" stroke="#63b8ff" points="221.35,-233.53 215.08,-224.99 214.66,-235.57 221.35,-233.53"/>
</a>
</g>
</g>
<!-- Node6 -->
<g id="Node000006" class="node">
<title>Node6</title>
<g id="a_Node000006"><a xlink:href="db_8c.html#acf22552cea34ecb639c0eff78dd09a9f" target="_top" xlink:title=" ">
<polygon fill="white" stroke="#666666" points="374.25,-176.25 307.25,-176.25 307.25,-157 374.25,-157 374.25,-176.25"/>
<text xml:space="preserve" text-anchor="middle" x="340.75" y="-162.75" font-family="Helvetica,sans-Serif" font-size="10.00">safe_strdup</text>
</a>
</g>
</g>
<!-- Node5&#45;&gt;Node6 -->
<g id="edge9_Node000005_Node000006" class="edge">
<title>Node5&#45;&gt;Node6</title>
<g id="a_edge9_Node000005_Node000006"><a xlink:title=" ">
<path fill="none" stroke="#63b8ff" d="M227.47,-203.54C235.92,-201.01 244.92,-198.26 253.25,-195.62 268.53,-190.78 285.25,-185.24 299.88,-180.3"/>
<polygon fill="#63b8ff" stroke="#63b8ff" points="300.82,-183.68 309.17,-177.15 298.57,-177.05 300.82,-183.68"/>
</a>
</g>
</g>
<!-- Node6&#45;&gt;Node6 -->
<g id="edge10_Node000006_Node000006" class="edge">
<title>Node6&#45;&gt;Node6</title>
<g id="a_edge10_Node000006_Node000006"><a xlink:title=" ">
<path fill="none" stroke="#63b8ff" d="M317.46,-176.54C306.84,-185.15 314.6,-194.25 340.75,-194.25 355.46,-194.25 364.35,-191.37 367.42,-187.32"/>
<polygon fill="#63b8ff" stroke="#63b8ff" points="370.83,-186.47 364.49,-177.98 364.15,-188.57 370.83,-186.47"/>
</a>
</g>
</g>
<!-- Node7&#45;&gt;Node7 -->
<g id="edge12_Node000007_Node000007" class="edge">
<title>Node7&#45;&gt;Node7</title>
<g id="a_edge12_Node000007_Node000007"><a xlink:title=" ">
<path fill="none" stroke="#63b8ff" d="M169.36,-168.54C159.03,-177.15 166.58,-186.25 192,-186.25 206.3,-186.25 214.94,-183.37 217.93,-179.32"/>
<polygon fill="#63b8ff" stroke="#63b8ff" points="221.35,-178.53 215.08,-169.99 214.66,-180.57 221.35,-178.53"/>
</a>
</g>
</g>
<!-- Node8&#45;&gt;Node6 -->
<g id="edge15_Node000008_Node000006" class="edge">
<title>Node8&#45;&gt;Node6</title>
<g id="a_edge15_Node000008_Node000006"><a xlink:title=" ">
<path fill="none" stroke="#63b8ff" d="M216.58,-113.75C240.75,-124.13 278.59,-140.37 305.95,-152.11"/>
<polygon fill="#63b8ff" stroke="#63b8ff" points="304.27,-155.2 314.84,-155.93 307.03,-148.77 304.27,-155.2"/>
</a>
</g>
</g>
<!-- Node8&#45;&gt;Node8 -->
<g id="edge14_Node000008_Node000008" class="edge">
<title>Node8&#45;&gt;Node8</title>
<g id="a_edge14_Node000008_Node000008"><a xlink:title=" ">
<path fill="none" stroke="#63b8ff" d="M169.36,-113.54C159.03,-122.15 166.58,-131.25 192,-131.25 206.3,-131.25 214.94,-128.37 217.93,-124.32"/>
<polygon fill="#63b8ff" stroke="#63b8ff" points="221.35,-123.53 215.08,-114.99 214.66,-125.57 221.35,-123.53"/>
</a>
</g>
</g>
<!-- Node9&#45;&gt;Node9 -->
<g id="edge17_Node000009_Node000009" class="edge">
<title>Node9&#45;&gt;Node9</title>
<g id="a_edge17_Node000009_Node000009"><a xlink:title=" ">
<path fill="none" stroke="#63b8ff" d="M317.46,-74.54C306.84,-83.15 314.6,-92.25 340.75,-92.25 355.46,-92.25 364.35,-89.37 367.42,-85.32"/>
<polygon fill="#63b8ff" stroke="#63b8ff" points="370.83,-84.47 364.49,-75.98 364.15,-86.57 370.83,-84.47"/>
</a>
</g>
</g>
<!-- Node10&#45;&gt;Node9 -->
<g id="edge22_Node000010_Node000009" class="edge">
<title>Node10&#45;&gt;Node9</title>
<g id="a_edge22_Node000010_Node000009"><a xlink:title=" ">
<path fill="none" stroke="#63b8ff" d="M218.67,-19.69C238.02,-27.23 265.24,-37.73 289.25,-46.62 292.9,-47.98 296.7,-49.36 300.5,-50.74"/>
<polygon fill="#63b8ff" stroke="#63b8ff" points="299.11,-53.96 309.7,-54.05 301.48,-47.37 299.11,-53.96"/>
</a>
</g>
</g>
<!-- Node10&#45;&gt;Node10 -->
<g id="edge23_Node000010_Node000010" class="edge">
<title>Node10&#45;&gt;Node10</title>
<g id="a_edge23_Node000010_Node000010"><a xlink:title=" ">
<path fill="none" stroke="#63b8ff" d="M169.36,-19.54C159.03,-28.15 166.58,-37.25 192,-37.25 206.3,-37.25 214.94,-34.37 217.93,-30.32"/>
<polygon fill="#63b8ff" stroke="#63b8ff" points="221.35,-29.53 215.08,-20.99 214.66,-31.57 221.35,-29.53"/>
</a>
</g>
</g>
<!-- Node11 -->
<g id="Node000011" class="node">
<title>Node11</title>
<g id="a_Node000011"><a xlink:href="db_8c.html#af3716c308f44a29fe432ef4e7b8faaee" target="_top" xlink:title=" ">
<polygon fill="white" stroke="#666666" points="386.25,-19.25 295.25,-19.25 295.25,0 386.25,0 386.25,-19.25"/>
<text xml:space="preserve" text-anchor="middle" x="340.75" y="-5.75" font-family="Helvetica,sans-Serif" font-size="10.00">db_get_summary</text>
</a>
</g>
</g>
<!-- Node10&#45;&gt;Node11 -->
<g id="edge20_Node000010_Node000011" class="edge">
<title>Node10&#45;&gt;Node11</title>
<g id="a_edge20_Node000010_Node000011"><a xlink:title=" ">
<path fill="none" stroke="#63b8ff" d="M240.65,-9.62C254.38,-9.62 269.49,-9.62 283.69,-9.62"/>
<polygon fill="#63b8ff" stroke="#63b8ff" points="283.32,-13.13 293.32,-9.63 283.32,-6.13 283.32,-13.13"/>
</a>
</g>
</g>
<!-- Node11&#45;&gt;Node11 -->
<g id="edge21_Node000011_Node000011" class="edge">
<title>Node11&#45;&gt;Node11</title>
<g id="a_edge21_Node000011_Node000011"><a xlink:title=" ">
<path fill="none" stroke="#63b8ff" d="M317.46,-19.54C306.84,-28.15 314.6,-37.25 340.75,-37.25 355.46,-37.25 364.35,-34.37 367.42,-30.32"/>
<polygon fill="#63b8ff" stroke="#63b8ff" points="370.83,-29.47 364.49,-20.98 364.15,-31.57 370.83,-29.47"/>
</a>
</g>
</g>
</g>
</svg>
</svg>

<style type='text/css'>
<![CDATA[
[data-mouse-over-selected='false'] { opacity: 0.7; }
[data-mouse-over-selected='true']  { opacity: 1.0; }
]]>
</style>
</svg>
