<?xml version="1.0" encoding="UTF-8" standalone="no"?>
<!DOCTYPE svg PUBLIC "-//W3C//DTD SVG 1.1//EN"
 "http://www.w3.org/Graphics/SVG/1.1/DTD/svg11.dtd">
<!-- Generated by graphviz version 16.1.0 (20260904.0139)
 -->
<!-- Title: process_single_file Pages: 1 -->
<svg width="590pt" height="119pt"
 viewBox="0.00 0.00 590.00 119.00" xmlns="http://www.w3.org/2000/svg" xmlns:xlink="http://www.w3.org/1999/xlink">
<g id="graph0" class="graph" transform="scale(1 1) rotate(0) translate(4 115.25)">
<title>process_single_file</title>
<!-- Node1 -->
<g id="Node000001" class="node">
<title>Node1</title>
<g id="a_Node000001"><a xlink:title=" ">
<polygon fill="#999999" stroke="#666666" points="582.11,-65.25 482.86,-65.25 482.86,-46 582.11,-46 582.11,-65.25"/>
<text xml:space="preserve" text-anchor="middle" x="532.49" y="-51.75" font-family="Helvetica,sans-Serif" font-size="10.00">process_single_file</text>
</a>
</g>
</g>
<!-- Node1&#45;&gt;Node1 -->
<g id="edge13_Node000001_Node000001" class="edge">
<title>Node1&#45;&gt;Node1</title>
<g id="a_edge13_Node000001_Node000001"><a xlink:title=" ">
<path fill="none" stroke="#63b8ff" d="M557.36,-76.65C554.25,-80.53 545.96,-83.25 532.49,-83.25 507.86,-83.25 500.54,-74.15 510.55,-65.54"/>
<polygon fill="#63b8ff" stroke="#63b8ff" points="560.75,-75.78 554.81,-67 553.98,-77.56 560.75,-75.78"/>
</a>
</g>
</g>
<!-- Node2 -->
<g id="Node000002" class="node">
<title>Node2</title>
<g id="a_Node000002"><a xlink:href="scanner_8c.html#a536509c8cf0280038d9919ac3ef6ba6a" target="_top" xlink:title=" ">
<polygon fill="white" stroke="#666666" points="446.86,-65.25 337.86,-65.25 337.86,-46 446.86,-46 446.86,-65.25"/>
<text xml:space="preserve" text-anchor="middle" x="392.36" y="-51.75" font-family="Helvetica,sans-Serif" font-size="10.00">process_path_entries</text>
</a>
</g>
</g>
<!-- Node1&#45;&gt;Node2 -->
<g id="edge1_Node000001_Node000002" class="edge">
<title>Node1&#45;&gt;Node2</title>
<g id="a_edge1_Node000001_Node000002"><a xlink:title=" ">
<path fill="none" stroke="#63b8ff" d="M470.9,-55.62C462.93,-55.62 454.82,-55.62 446.98,-55.62"/>
<polygon fill="#63b8ff" stroke="#63b8ff" points="470.89,-59.13 480.89,-55.63 470.89,-52.13 470.89,-59.13"/>
</a>
</g>
</g>
<!-- Node2&#45;&gt;Node2 -->
<g id="edge5_Node000002_Node000002" class="edge">
<title>Node2&#45;&gt;Node2</title>
<g id="a_edge5_Node000002_Node000002"><a xlink:title=" ">
<path fill="none" stroke="#63b8ff" d="M417.24,-76.65C414.12,-80.53 405.83,-83.25 392.36,-83.25 367.73,-83.25 360.42,-74.15 370.43,-65.54"/>
<polygon fill="#63b8ff" stroke="#63b8ff" points="420.62,-75.78 414.69,-67 413.86,-77.56 420.62,-75.78"/>
</a>
</g>
</g>
<!-- Node3 -->
<g id="Node000003" class="node">
<title>Node3</title>
<g id="a_Node000003"><a xlink:href="scanner_8c.html#a380782152628e81379f0c8533bb474b2" target="_top" xlink:title=" ">
<polygon fill="white" stroke="#666666" points="301.86,-93.25 199.61,-93.25 199.61,-74 301.86,-74 301.86,-93.25"/>
<text xml:space="preserve" text-anchor="middle" x="250.74" y="-79.75" font-family="Helvetica,sans-Serif" font-size="10.00">dispatch_child_path</text>
</a>
</g>
</g>
<!-- Node2&#45;&gt;Node3 -->
<g id="edge2_Node000002_Node000003" class="edge">
<title>Node2&#45;&gt;Node3</title>
<g id="a_edge2_Node000002_Node000003"><a xlink:title=" ">
<path fill="none" stroke="#63b8ff" d="M326.24,-61.95C308.19,-65.46 289.72,-69.67 275.68,-73.59"/>
<polygon fill="#63b8ff" stroke="#63b8ff" points="326.71,-65.42 335.89,-60.14 325.42,-58.54 326.71,-65.42"/>
</a>
</g>
</g>
<!-- Node4 -->
<g id="Node000004" class="node">
<title>Node4</title>
<g id="a_Node000004"><a xlink:href="scanner_8c.html#ae93b3dfe4302267aa496b5f50e5ef7a1" target="_top" xlink:title=" ">
<polygon fill="white" stroke="#666666" points="286.49,-38.25 214.99,-38.25 214.99,-19 286.49,-19 286.49,-38.25"/>
<text xml:space="preserve" text-anchor="middle" x="250.74" y="-24.75" font-family="Helvetica,sans-Serif" font-size="10.00">scan_worker</text>
</a>
</g>
</g>
<!-- Node2&#45;&gt;Node4 -->
<g id="edge6_Node000002_Node000004" class="edge">
<title>Node2&#45;&gt;Node4</title>
<g id="a_edge6_Node000002_Node000004"><a xlink:title=" ">
<path fill="none" stroke="#63b8ff" d="M328.11,-43.39C313.92,-40.65 299.37,-37.84 286.82,-35.41"/>
<polygon fill="#63b8ff" stroke="#63b8ff" points="327.4,-46.82 337.89,-45.28 328.73,-39.95 327.4,-46.82"/>
</a>
</g>
</g>
<!-- Node5 -->
<g id="Node000005" class="node">
<title>Node5</title>
<g id="a_Node000005"><a xlink:href="scanner_8c.html#ac67cfd4d80fcfe70425d7c9ed929977b" target="_top" xlink:title=" ">
<polygon fill="white" stroke="#666666" points="163.61,-19.25 73.36,-19.25 73.36,0 163.61,0 163.61,-19.25"/>
<text xml:space="preserve" text-anchor="middle" x="118.49" y="-5.75" font-family="Helvetica,sans-Serif" font-size="10.00">scanner_execute</text>
</a>
</g>
</g>
<!-- Node2&#45;&gt;Node5 -->
<g id="edge12_Node000002_Node000005" class="edge">
<title>Node2&#45;&gt;Node5</title>
<g id="a_edge12_Node000002_Node000005"><a xlink:title=" ">
<path fill="none" stroke="#63b8ff" d="M367.69,-39.49C350.33,-28.68 325.71,-15.39 301.86,-9.62 255.86,1.51 201.39,-0.36 164.03,-3.85"/>
<polygon fill="#63b8ff" stroke="#63b8ff" points="365.45,-42.21 375.75,-44.68 369.24,-36.32 365.45,-42.21"/>
</a>
</g>
</g>
<!-- Node3&#45;&gt;Node2 -->
<g id="edge4_Node000003_Node000002" class="edge">
<title>Node3&#45;&gt;Node2</title>
<g id="a_edge4_Node000003_Node000002"><a xlink:title=" ">
<path fill="none" stroke="#63b8ff" d="M313.4,-77.97C332.51,-74.33 352.44,-69.84 367.36,-65.68"/>
<polygon fill="#63b8ff" stroke="#63b8ff" points="312.99,-74.49 303.79,-79.73 314.25,-81.37 312.99,-74.49"/>
</a>
</g>
</g>
<!-- Node3&#45;&gt;Node3 -->
<g id="edge3_Node000003_Node000003" class="edge">
<title>Node3&#45;&gt;Node3</title>
<g id="a_edge3_Node000003_Node000003"><a xlink:title=" ">
<path fill="none" stroke="#63b8ff" d="M274.21,-104.65C271.28,-108.53 263.45,-111.25 250.74,-111.25 227.49,-111.25 220.59,-102.15 230.03,-93.54"/>
<polygon fill="#63b8ff" stroke="#63b8ff" points="277.62,-103.86 271.81,-95.01 270.83,-105.56 277.62,-103.86"/>
</a>
</g>
</g>
<!-- Node4&#45;&gt;Node4 -->
<g id="edge7_Node000004_Node000004" class="edge">
<title>Node4&#45;&gt;Node4</title>
<g id="a_edge7_Node000004_Node000004"><a xlink:title=" ">
<path fill="none" stroke="#63b8ff" d="M274.21,-49.65C271.28,-53.53 263.45,-56.25 250.74,-56.25 227.49,-56.25 220.59,-47.15 230.03,-38.54"/>
<polygon fill="#63b8ff" stroke="#63b8ff" points="277.62,-48.86 271.81,-40.01 270.83,-50.56 277.62,-48.86"/>
</a>
</g>
</g>
<!-- Node4&#45;&gt;Node5 -->
<g id="edge8_Node000004_Node000005" class="edge">
<title>Node4&#45;&gt;Node5</title>
<g id="a_edge8_Node000004_Node000005"><a xlink:title=" ">
<path fill="none" stroke="#63b8ff" d="M203.16,-21.83C190.45,-19.98 176.7,-17.97 164.1,-16.13"/>
<polygon fill="#63b8ff" stroke="#63b8ff" points="202.59,-25.28 212.99,-23.26 203.6,-18.36 202.59,-25.28"/>
</a>
</g>
</g>
<!-- Node5&#45;&gt;Node5 -->
<g id="edge11_Node000005_Node000005" class="edge">
<title>Node5&#45;&gt;Node5</title>
<g id="a_edge11_Node000005_Node000005"><a xlink:title=" ">
<path fill="none" stroke="#63b8ff" d="M136.17,-30.65C133.96,-34.53 128.07,-37.25 118.49,-37.25 100.98,-37.25 95.78,-28.15 102.89,-19.54"/>
<polygon fill="#63b8ff" stroke="#63b8ff" points="139.65,-30.21 134.36,-21.03 132.77,-31.5 139.65,-30.21"/>
</a>
</g>
</g>
<!-- Node6 -->
<g id="Node000006" class="node">
<title>Node6</title>
<g id="a_Node000006"><a xlink:href="main_8c.html#a5d474dbfbae98dbc733874c8062c4c10" target="_top" xlink:title=" ">
<polygon fill="white" stroke="#666666" points="37.36,-19.25 0.36,-19.25 0.36,0 37.36,0 37.36,-19.25"/>
<text xml:space="preserve" text-anchor="middle" x="18.86" y="-5.75" font-family="Helvetica,sans-Serif" font-size="10.00">main</text>
</a>
</g>
</g>
<!-- Node5&#45;&gt;Node6 -->
<g id="edge9_Node000005_Node000006" class="edge">
<title>Node5&#45;&gt;Node6</title>
<g id="a_edge9_Node000005_Node000006"><a xlink:title=" ">
<path fill="none" stroke="#63b8ff" d="M61.55,-9.62C52.93,-9.62 44.62,-9.62 37.71,-9.62"/>
<polygon fill="#63b8ff" stroke="#63b8ff" points="61.45,-13.13 71.45,-9.63 61.45,-6.13 61.45,-13.13"/>
</a>
</g>
</g>
<!-- Node6&#45;&gt;Node6 -->
<g id="edge10_Node000006_Node000006" class="edge">
<title>Node6&#45;&gt;Node6</title>
<g id="a_edge10_Node000006_Node000006"><a xlink:title=" ">
<path fill="none" stroke="#63b8ff" d="M36.55,-30.65C34.33,-34.53 28.44,-37.25 18.86,-37.25 1.35,-37.25 -3.85,-28.15 3.27,-19.54"/>
<polygon fill="#63b8ff" stroke="#63b8ff" points="40.02,-30.21 34.74,-21.03 33.14,-31.5 40.02,-30.21"/>
</a>
</g>
</g>
</g>
</svg>
