<?xml version="1.0" encoding="UTF-8" standalone="no"?>
<!DOCTYPE svg PUBLIC "-//W3C//DTD SVG 1.1//EN"
 "http://www.w3.org/Graphics/SVG/1.1/DTD/svg11.dtd">
<!-- Generated by graphviz version 16.1.0 (20260904.0139)
 -->
<!-- Title: process_precompressed_file Pages: 1 -->
<svg width="717pt" height="393pt"
 viewBox="0.00 0.00 717.00 393.00" xmlns="http://www.w3.org/2000/svg" xmlns:xlink="http://www.w3.org/1999/xlink">
<g id="graph0" class="graph" transform="scale(1 1) rotate(0) translate(4 388.88)">
<title>process_precompressed_file</title>
<!-- Node1 -->
<g id="Node000001" class="node">
<title>Node1</title>
<g id="a_Node000001"><a xlink:title=" ">
<polygon fill="#999999" stroke="#666666" points="140.5,-269.25 0,-269.25 0,-250 140.5,-250 140.5,-269.25"/>
<text xml:space="preserve" text-anchor="middle" x="70.25" y="-255.75" font-family="Helvetica,sans-Serif" font-size="10.00">process_precompressed_file</text>
</a>
</g>
</g>
<!-- Node1&#45;&gt;Node1 -->
<g id="edge5_Node000001_Node000001" class="edge">
<title>Node1&#45;&gt;Node1</title>
<g id="a_edge5_Node000001_Node000001"><a xlink:title=" ">
<path fill="none" stroke="#63b8ff" d="M43.67,-269.54C31.55,-278.15 40.41,-287.25 70.25,-287.25 87.03,-287.25 97.18,-284.37 100.69,-280.32"/>
<polygon fill="#63b8ff" stroke="#63b8ff" points="104,-279.2 97.34,-270.96 97.41,-281.56 104,-279.2"/>
</a>
</g>
</g>
<!-- Node2 -->
<g id="Node000002" class="node">
<title>Node2</title>
<g id="a_Node000002"><a xlink:href="compressor_8c.html#ab14d4ef2ee73a26eb652767bfe3d5c32" target="_top" xlink:title=" ">
<polygon fill="white" stroke="#666666" points="303.5,-366.88 176.5,-366.88 176.5,-336.38 303.5,-336.38 303.5,-366.88"/>
<text xml:space="preserve" text-anchor="start" x="184.5" y="-353.38" font-family="Helvetica,sans-Serif" font-size="10.00">compressor_get_physical</text>
<text xml:space="preserve" text-anchor="middle" x="240" y="-342.12" font-family="Helvetica,sans-Serif" font-size="10.00">_bytes</text>
</a>
</g>
</g>
<!-- Node1&#45;&gt;Node2 -->
<g id="edge1_Node000001_Node000002" class="edge">
<title>Node1&#45;&gt;Node2</title>
<g id="a_edge1_Node000001_Node000002"><a xlink:title=" ">
<path fill="none" stroke="#63b8ff" d="M84.67,-269.59C104.16,-283.77 141.78,-309.98 176.5,-327.62 179.04,-328.91 181.66,-330.18 184.34,-331.41"/>
<polygon fill="#63b8ff" stroke="#63b8ff" points="182.84,-334.57 193.4,-335.36 185.64,-328.16 182.84,-334.57"/>
</a>
</g>
</g>
<!-- Node3 -->
<g id="Node000003" class="node">
<title>Node3</title>
<g id="a_Node000003"><a xlink:href="scanner_8c.html#a7cd0c5e6a137ec683d942987247e6874" target="_top" xlink:title=" ">
<polygon fill="white" stroke="#666666" points="289.25,-300.25 190.75,-300.25 190.75,-281 289.25,-281 289.25,-300.25"/>
<text xml:space="preserve" text-anchor="middle" x="240" y="-286.75" font-family="Helvetica,sans-Serif" font-size="10.00">increment_statistic</text>
</a>
</g>
</g>
<!-- Node1&#45;&gt;Node3 -->
<g id="edge3_Node000001_Node000003" class="edge">
<title>Node1&#45;&gt;Node3</title>
<g id="a_edge3_Node000001_Node000003"><a xlink:title=" ">
<path fill="none" stroke="#63b8ff" d="M125.71,-269.69C142.82,-272.85 161.8,-276.36 179.25,-279.58"/>
<polygon fill="#63b8ff" stroke="#63b8ff" points="178.51,-283.01 188.98,-281.38 179.78,-276.12 178.51,-283.01"/>
</a>
</g>
</g>
<!-- Node4 -->
<g id="Node000004" class="node">
<title>Node4</title>
<g id="a_Node000004"><a xlink:href="scanner_8c.html#abc733cf999660cbbf2890d9f639030be" target="_top" xlink:title=" ">
<polygon fill="white" stroke="#666666" points="295.62,-244.88 184.38,-244.88 184.38,-214.38 295.62,-214.38 295.62,-244.88"/>
<text xml:space="preserve" text-anchor="start" x="192.38" y="-231.38" font-family="Helvetica,sans-Serif" font-size="10.00">record_file_and_batch</text>
<text xml:space="preserve" text-anchor="middle" x="240" y="-220.12" font-family="Helvetica,sans-Serif" font-size="10.00">_commit</text>
</a>
</g>
</g>
<!-- Node1&#45;&gt;Node4 -->
<g id="edge6_Node000001_Node000004" class="edge">
<title>Node1&#45;&gt;Node4</title>
<g id="a_edge6_Node000001_Node000004"><a xlink:title=" ">
<path fill="none" stroke="#63b8ff" d="M127.57,-249.55C142.06,-246.96 157.78,-244.15 172.72,-241.48"/>
<polygon fill="#63b8ff" stroke="#63b8ff" points="173.25,-244.94 182.47,-239.73 172.01,-238.05 173.25,-244.94"/>
</a>
</g>
</g>
<!-- Node10 -->
<g id="Node000010" class="node">
<title>Node10</title>
<g id="a_Node000010"><a xlink:href="scanner_8c.html#a589c143f88c52b55d1df52567b8bbe18" target="_top" xlink:title=" ">
<polygon fill="white" stroke="#666666" points="300.12,-129.25 179.88,-129.25 179.88,-110 300.12,-110 300.12,-129.25"/>
<text xml:space="preserve" text-anchor="middle" x="240" y="-115.75" font-family="Helvetica,sans-Serif" font-size="10.00">render_progress_update</text>
</a>
</g>
</g>
<!-- Node1&#45;&gt;Node10 -->
<g id="edge19_Node000001_Node000010" class="edge">
<title>Node1&#45;&gt;Node10</title>
<g id="a_edge19_Node000001_Node000010"><a xlink:title=" ">
<path fill="none" stroke="#63b8ff" d="M83.31,-249.56C111.73,-225.84 183.11,-166.27 218.48,-136.75"/>
<polygon fill="#63b8ff" stroke="#63b8ff" points="220.45,-139.67 225.88,-130.57 215.96,-134.29 220.45,-139.67"/>
</a>
</g>
</g>
<!-- Node2&#45;&gt;Node2 -->
<g id="edge2_Node000002_Node000002" class="edge">
<title>Node2&#45;&gt;Node2</title>
<g id="a_edge2_Node000002_Node000002"><a xlink:title=" ">
<path fill="none" stroke="#63b8ff" d="M210.92,-367.36C204.98,-376.43 214.68,-384.88 240,-384.88 253.85,-384.88 263.02,-382.35 267.52,-378.58"/>
<polygon fill="#63b8ff" stroke="#63b8ff" points="270.96,-379.25 268.87,-368.86 264.03,-378.28 270.96,-379.25"/>
</a>
</g>
</g>
<!-- Node3&#45;&gt;Node3 -->
<g id="edge4_Node000003_Node000003" class="edge">
<title>Node3&#45;&gt;Node3</title>
<g id="a_edge4_Node000003_Node000003"><a xlink:title=" ">
<path fill="none" stroke="#63b8ff" d="M214.31,-300.54C202.59,-309.15 211.15,-318.25 240,-318.25 256.23,-318.25 266.04,-315.37 269.43,-311.32"/>
<polygon fill="#63b8ff" stroke="#63b8ff" points="272.77,-310.27 266.19,-301.97 266.16,-312.56 272.77,-310.27"/>
</a>
</g>
</g>
<!-- Node4&#45;&gt;Node4 -->
<g id="edge18_Node000004_Node000004" class="edge">
<title>Node4&#45;&gt;Node4</title>
<g id="a_edge18_Node000004_Node000004"><a xlink:title=" ">
<path fill="none" stroke="#63b8ff" d="M210.92,-245.36C204.98,-254.43 214.68,-262.88 240,-262.88 253.85,-262.88 263.02,-260.35 267.52,-256.58"/>
<polygon fill="#63b8ff" stroke="#63b8ff" points="270.96,-257.25 268.87,-246.86 264.03,-256.28 270.96,-257.25"/>
</a>
</g>
</g>
<!-- Node5 -->
<g id="Node000005" class="node">
<title>Node5</title>
<g id="a_Node000005"><a xlink:href="db_8c.html#a978b66212d676806ff2e1ad22041cc55" target="_top" xlink:title=" ">
<polygon fill="white" stroke="#666666" points="442.5,-294.25 365.75,-294.25 365.75,-275 442.5,-275 442.5,-294.25"/>
<text xml:space="preserve" text-anchor="middle" x="404.12" y="-280.75" font-family="Helvetica,sans-Serif" font-size="10.00">db_upsert_file</text>
</a>
</g>
</g>
<!-- Node4&#45;&gt;Node5 -->
<g id="edge7_Node000004_Node000005" class="edge">
<title>Node4&#45;&gt;Node5</title>
<g id="a_edge7_Node000004_Node000005"><a xlink:title=" ">
<path fill="none" stroke="#63b8ff" d="M280.51,-245.33C298.4,-252.22 319.89,-260.18 339.5,-266.62 344.49,-268.26 349.72,-269.89 354.96,-271.46"/>
<polygon fill="#63b8ff" stroke="#63b8ff" points="353.59,-274.71 364.17,-274.15 355.55,-267.99 353.59,-274.71"/>
</a>
</g>
</g>
<!-- Node6 -->
<g id="Node000006" class="node">
<title>Node6</title>
<g id="a_Node000006"><a xlink:href="scanner_8c.html#a0abdfe409b0d472cb3347b9846f45e08" target="_top" xlink:title=" ">
<polygon fill="white" stroke="#666666" points="459.38,-239.25 348.88,-239.25 348.88,-220 459.38,-220 459.38,-239.25"/>
<text xml:space="preserve" text-anchor="middle" x="404.12" y="-225.75" font-family="Helvetica,sans-Serif" font-size="10.00">finish_database_write</text>
</a>
</g>
</g>
<!-- Node4&#45;&gt;Node6 -->
<g id="edge9_Node000004_Node000006" class="edge">
<title>Node4&#45;&gt;Node6</title>
<g id="a_edge9_Node000004_Node000006"><a xlink:title=" ">
<path fill="none" stroke="#63b8ff" d="M295.89,-229.62C309.17,-229.62 323.49,-229.62 337.22,-229.62"/>
<polygon fill="#63b8ff" stroke="#63b8ff" points="337.06,-233.13 347.06,-229.63 337.06,-226.13 337.06,-233.13"/>
</a>
</g>
</g>
<!-- Node5&#45;&gt;Node5 -->
<g id="edge8_Node000005_Node000005" class="edge">
<title>Node5&#45;&gt;Node5</title>
<g id="a_edge8_Node000005_Node000005"><a xlink:title=" ">
<path fill="none" stroke="#63b8ff" d="M383.36,-294.54C373.89,-303.15 380.81,-312.25 404.12,-312.25 416.87,-312.25 424.72,-309.53 427.67,-305.65"/>
<polygon fill="#63b8ff" stroke="#63b8ff" points="431.08,-304.86 425.26,-296.01 424.28,-306.56 431.08,-304.86"/>
</a>
</g>
</g>
<!-- Node6&#45;&gt;Node6 -->
<g id="edge17_Node000006_Node000006" class="edge">
<title>Node6&#45;&gt;Node6</title>
<g id="a_edge17_Node000006_Node000006"><a xlink:title=" ">
<path fill="none" stroke="#63b8ff" d="M383.36,-239.54C373.89,-248.15 380.81,-257.25 404.12,-257.25 416.87,-257.25 424.72,-254.53 427.67,-250.65"/>
<polygon fill="#63b8ff" stroke="#63b8ff" points="431.08,-249.86 425.26,-241.01 424.28,-251.56 431.08,-249.86"/>
</a>
</g>
</g>
<!-- Node7 -->
<g id="Node000007" class="node">
<title>Node7</title>
<g id="a_Node000007"><a xlink:href="db_8c.html#a13dd72b97d91ed33d85651bb50e64325" target="_top" xlink:title=" ">
<polygon fill="white" stroke="#666666" points="564.25,-266.25 509.25,-266.25 509.25,-247 564.25,-247 564.25,-266.25"/>
<text xml:space="preserve" text-anchor="middle" x="536.75" y="-252.75" font-family="Helvetica,sans-Serif" font-size="10.00">db_begin</text>
</a>
</g>
</g>
<!-- Node6&#45;&gt;Node7 -->
<g id="edge10_Node000006_Node000007" class="edge">
<title>Node6&#45;&gt;Node7</title>
<g id="a_edge10_Node000006_Node000007"><a xlink:title=" ">
<path fill="none" stroke="#63b8ff" d="M453.76,-239.68C468.39,-242.7 484.2,-245.97 498,-248.82"/>
<polygon fill="#63b8ff" stroke="#63b8ff" points="497.07,-252.2 507.57,-250.8 498.49,-245.35 497.07,-252.2"/>
</a>
</g>
</g>
<!-- Node9 -->
<g id="Node000009" class="node">
<title>Node9</title>
<g id="a_Node000009"><a xlink:href="db_8c.html#a42f656ceff7a62fb3d042502fab4b42a" target="_top" xlink:title=" ">
<polygon fill="white" stroke="#666666" points="568.75,-211.25 504.75,-211.25 504.75,-192 568.75,-192 568.75,-211.25"/>
<text xml:space="preserve" text-anchor="middle" x="536.75" y="-197.75" font-family="Helvetica,sans-Serif" font-size="10.00">db_commit</text>
</a>
</g>
</g>
<!-- Node6&#45;&gt;Node9 -->
<g id="edge14_Node000006_Node000009" class="edge">
<title>Node6&#45;&gt;Node9</title>
<g id="a_edge14_Node000006_Node000009"><a xlink:title=" ">
<path fill="none" stroke="#63b8ff" d="M452.28,-219.52C465.74,-216.63 480.3,-213.51 493.45,-210.69"/>
<polygon fill="#63b8ff" stroke="#63b8ff" points="494.04,-214.14 503.09,-208.63 492.57,-207.3 494.04,-214.14"/>
</a>
</g>
</g>
<!-- Node7&#45;&gt;Node7 -->
<g id="edge11_Node000007_Node000007" class="edge">
<title>Node7&#45;&gt;Node7</title>
<g id="a_edge11_Node000007_Node000007"><a xlink:title=" ">
<path fill="none" stroke="#63b8ff" d="M517.98,-266.54C509.42,-275.15 515.68,-284.25 536.75,-284.25 548.27,-284.25 555.37,-281.53 558.03,-277.65"/>
<polygon fill="#63b8ff" stroke="#63b8ff" points="561.47,-277 555.85,-268.01 554.64,-278.54 561.47,-277"/>
</a>
</g>
</g>
<!-- Node8 -->
<g id="Node000008" class="node">
<title>Node8</title>
<g id="a_Node000008"><a xlink:href="db_8c.html#a8615305ac04bba54aecc7f3f80733e56" target="_top" xlink:title=" ">
<polygon fill="white" stroke="#666666" points="708.5,-243.88 604.75,-243.88 604.75,-213.38 708.5,-213.38 708.5,-243.88"/>
<text xml:space="preserve" text-anchor="start" x="612.75" y="-230.38" font-family="Helvetica,sans-Serif" font-size="10.00">execute_transaction</text>
<text xml:space="preserve" text-anchor="middle" x="656.62" y="-219.12" font-family="Helvetica,sans-Serif" font-size="10.00">_statement</text>
</a>
</g>
</g>
<!-- Node7&#45;&gt;Node8 -->
<g id="edge12_Node000007_Node000008" class="edge">
<title>Node7&#45;&gt;Node8</title>
<g id="a_edge12_Node000007_Node000008"><a xlink:title=" ">
<path fill="none" stroke="#63b8ff" d="M564.5,-250.27C573.18,-248.21 583.2,-245.83 593.36,-243.42"/>
<polygon fill="#63b8ff" stroke="#63b8ff" points="593.98,-246.87 602.9,-241.15 592.36,-240.06 593.98,-246.87"/>
</a>
</g>
</g>
<!-- Node8&#45;&gt;Node8 -->
<g id="edge13_Node000008_Node000008" class="edge">
<title>Node8&#45;&gt;Node8</title>
<g id="a_edge13_Node000008_Node000008"><a xlink:title=" ">
<path fill="none" stroke="#63b8ff" d="M635.38,-244.36C631.05,-253.43 638.13,-261.88 656.62,-261.88 666.74,-261.88 673.44,-259.35 676.73,-255.58"/>
<polygon fill="#63b8ff" stroke="#63b8ff" points="680.19,-256.17 677.71,-245.87 673.22,-255.46 680.19,-256.17"/>
</a>
</g>
</g>
<!-- Node9&#45;&gt;Node8 -->
<g id="edge16_Node000009_Node000008" class="edge">
<title>Node9&#45;&gt;Node8</title>
<g id="a_edge16_Node000009_Node000008"><a xlink:title=" ">
<path fill="none" stroke="#63b8ff" d="M569.03,-208.79C576.62,-210.53 585,-212.45 593.46,-214.39"/>
<polygon fill="#63b8ff" stroke="#63b8ff" points="592.58,-217.78 603.11,-216.6 594.15,-210.95 592.58,-217.78"/>
</a>
</g>
</g>
<!-- Node9&#45;&gt;Node9 -->
<g id="edge15_Node000009_Node000009" class="edge">
<title>Node9&#45;&gt;Node9</title>
<g id="a_edge15_Node000009_Node000009"><a xlink:title=" ">
<path fill="none" stroke="#63b8ff" d="M517.98,-211.54C509.42,-220.15 515.68,-229.25 536.75,-229.25 548.27,-229.25 555.37,-226.53 558.03,-222.65"/>
<polygon fill="#63b8ff" stroke="#63b8ff" points="561.47,-222 555.85,-213.01 554.64,-223.54 561.47,-222"/>
</a>
</g>
</g>
<!-- Node10&#45;&gt;Node10 -->
<g id="edge24_Node000010_Node000010" class="edge">
<title>Node10&#45;&gt;Node10</title>
<g id="a_edge24_Node000010_Node000010"><a xlink:title=" ">
<path fill="none" stroke="#63b8ff" d="M214.31,-129.54C202.59,-138.15 211.15,-147.25 240,-147.25 256.23,-147.25 266.04,-144.37 269.43,-140.32"/>
<polygon fill="#63b8ff" stroke="#63b8ff" points="272.77,-139.27 266.19,-130.97 266.16,-141.56 272.77,-139.27"/>
</a>
</g>
</g>
<!-- Node11 -->
<g id="Node000011" class="node">
<title>Node11</title>
<g id="a_Node000011"><a xlink:href="scanner_8c.html#a81677a84a1b6ff9965de2942e8c64d79" target="_top" xlink:title=" ">
<polygon fill="white" stroke="#666666" points="468.75,-184.25 339.5,-184.25 339.5,-165 468.75,-165 468.75,-184.25"/>
<text xml:space="preserve" text-anchor="middle" x="404.12" y="-170.75" font-family="Helvetica,sans-Serif" font-size="10.00">current_time_milliseconds</text>
</a>
</g>
</g>
<!-- Node10&#45;&gt;Node11 -->
<g id="edge20_Node000010_Node000011" class="edge">
<title>Node10&#45;&gt;Node11</title>
<g id="a_edge20_Node000010_Node000011"><a xlink:title=" ">
<path fill="none" stroke="#63b8ff" d="M265.9,-129.64C285.69,-137.43 314.16,-148.3 339.5,-156.62 344.49,-158.26 349.72,-159.89 354.96,-161.46"/>
<polygon fill="#63b8ff" stroke="#63b8ff" points="353.59,-164.71 364.17,-164.15 355.55,-157.99 353.59,-164.71"/>
</a>
</g>
</g>
<!-- Node12 -->
<g id="Node000012" class="node">
<title>Node12</title>
<g id="a_Node000012"><a xlink:href="scanner_8c.html#aaf3280e80b8d2db02f60c4a43bc0447c" target="_top" xlink:title=" ">
<polygon fill="white" stroke="#666666" points="441.38,-129.25 366.88,-129.25 366.88,-110 441.38,-110 441.38,-129.25"/>
<text xml:space="preserve" text-anchor="middle" x="404.12" y="-115.75" font-family="Helvetica,sans-Serif" font-size="10.00">read_statistic</text>
</a>
</g>
</g>
<!-- Node10&#45;&gt;Node12 -->
<g id="edge22_Node000010_Node000012" class="edge">
<title>Node10&#45;&gt;Node12</title>
<g id="a_edge22_Node000010_Node000012"><a xlink:title=" ">
<path fill="none" stroke="#63b8ff" d="M300.45,-119.62C318.51,-119.62 338.12,-119.62 355.31,-119.62"/>
<polygon fill="#63b8ff" stroke="#63b8ff" points="355.27,-123.13 365.27,-119.63 355.27,-116.13 355.27,-123.13"/>
</a>
</g>
</g>
<!-- Node13 -->
<g id="Node000013" class="node">
<title>Node13</title>
<g id="a_Node000013"><a xlink:href="report_8c.html#acb1cca0af82e6a094263e9f372cdeef6" target="_top" xlink:title=" ">
<polygon fill="white" stroke="#666666" points="455.62,-74.25 352.62,-74.25 352.62,-55 455.62,-55 455.62,-74.25"/>
<text xml:space="preserve" text-anchor="middle" x="404.12" y="-60.75" font-family="Helvetica,sans-Serif" font-size="10.00">report_format_bytes</text>
</a>
</g>
</g>
<!-- Node10&#45;&gt;Node13 -->
<g id="edge25_Node000010_Node000013" class="edge">
<title>Node10&#45;&gt;Node13</title>
<g id="a_edge25_Node000010_Node000013"><a xlink:title=" ">
<path fill="none" stroke="#63b8ff" d="M270.74,-109.54C296.48,-100.8 333.96,-88.09 362.47,-78.42"/>
<polygon fill="#63b8ff" stroke="#63b8ff" points="363.52,-81.76 371.87,-75.23 361.28,-75.13 363.52,-81.76"/>
</a>
</g>
</g>
<!-- Node14 -->
<g id="Node000014" class="node">
<title>Node14</title>
<g id="a_Node000014"><a xlink:href="scanner_8c.html#a45d8b2640482fdd72617191ce8b7353d" target="_top" xlink:title=" ">
<polygon fill="white" stroke="#666666" points="459.75,-19.25 348.5,-19.25 348.5,0 459.75,0 459.75,-19.25"/>
<text xml:space="preserve" text-anchor="middle" x="404.12" y="-5.75" font-family="Helvetica,sans-Serif" font-size="10.00">truncate_display_path</text>
</a>
</g>
</g>
<!-- Node10&#45;&gt;Node14 -->
<g id="edge27_Node000010_Node000014" class="edge">
<title>Node10&#45;&gt;Node14</title>
<g id="a_edge27_Node000010_Node000014"><a xlink:title=" ">
<path fill="none" stroke="#63b8ff" d="M253.37,-109.51C271.68,-94.73 307.29,-66.71 339.5,-45.62 350.44,-38.46 362.89,-31.23 373.85,-25.15"/>
<polygon fill="#63b8ff" stroke="#63b8ff" points="375.38,-28.3 382.48,-20.43 372.03,-22.16 375.38,-28.3"/>
</a>
</g>
</g>
<!-- Node11&#45;&gt;Node11 -->
<g id="edge21_Node000011_Node000011" class="edge">
<title>Node11&#45;&gt;Node11</title>
<g id="a_edge21_Node000011_Node000011"><a xlink:title=" ">
<path fill="none" stroke="#63b8ff" d="M383.36,-184.54C373.89,-193.15 380.81,-202.25 404.12,-202.25 416.87,-202.25 424.72,-199.53 427.67,-195.65"/>
<polygon fill="#63b8ff" stroke="#63b8ff" points="431.08,-194.86 425.26,-186.01 424.28,-196.56 431.08,-194.86"/>
</a>
</g>
</g>
<!-- Node12&#45;&gt;Node12 -->
<g id="edge23_Node000012_Node000012" class="edge">
<title>Node12&#45;&gt;Node12</title>
<g id="a_edge23_Node000012_Node000012"><a xlink:title=" ">
<path fill="none" stroke="#63b8ff" d="M383.36,-129.54C373.89,-138.15 380.81,-147.25 404.12,-147.25 416.87,-147.25 424.72,-144.53 427.67,-140.65"/>
<polygon fill="#63b8ff" stroke="#63b8ff" points="431.08,-139.86 425.26,-131.01 424.28,-141.56 431.08,-139.86"/>
</a>
</g>
</g>
<!-- Node13&#45;&gt;Node13 -->
<g id="edge26_Node000013_Node000013" class="edge">
<title>Node13&#45;&gt;Node13</title>
<g id="a_edge26_Node000013_Node000013"><a xlink:title=" ">
<path fill="none" stroke="#63b8ff" d="M383.36,-74.54C373.89,-83.15 380.81,-92.25 404.12,-92.25 416.87,-92.25 424.72,-89.53 427.67,-85.65"/>
<polygon fill="#63b8ff" stroke="#63b8ff" points="431.08,-84.86 425.26,-76.01 424.28,-86.56 431.08,-84.86"/>
</a>
</g>
</g>
<!-- Node14&#45;&gt;Node14 -->
<g id="edge28_Node000014_Node000014" class="edge">
<title>Node14&#45;&gt;Node14</title>
<g id="a_edge28_Node000014_Node000014"><a xlink:title=" ">
<path fill="none" stroke="#63b8ff" d="M383.36,-19.54C373.89,-28.15 380.81,-37.25 404.12,-37.25 416.87,-37.25 424.72,-34.53 427.67,-30.65"/>
<polygon fill="#63b8ff" stroke="#63b8ff" points="431.08,-29.86 425.26,-21.01 424.28,-31.56 431.08,-29.86"/>
</a>
</g>
</g>
</g>
</svg>
