<?xml version="1.0" encoding="UTF-8" standalone="no"?>
<!DOCTYPE svg PUBLIC "-//W3C//DTD SVG 1.1//EN"
 "http://www.w3.org/Graphics/SVG/1.1/DTD/svg11.dtd">
<!-- Generated by graphviz version 16.1.0 (20260904.0139)
 -->
<!-- Title: include/scanner.h Pages: 1 -->
<svg width="246pt" height="138pt"
 viewBox="0.00 0.00 246.00 138.00" xmlns="http://www.w3.org/2000/svg" xmlns:xlink="http://www.w3.org/1999/xlink">

<svg id="main" version="1.1" xmlns="http://www.w3.org/2000/svg" xmlns:xlink="http://www.w3.org/1999/xlink" xml:space="preserve">

<style type="text/css"><![CDATA[
.node, .edge {opacity: 0.7;}
.node.selected, .edge.selected {opacity: 1;}
.edge:hover path { stroke: red; }
.edge:hover polygon { stroke: red; fill: red; }
]]></style>
<script type="application/ecmascript" xlink:href="svg.min.js"/>
<svg id="graph" class="graph">
<g id="graph0" class="graph" transform="scale(1 1) rotate(0) translate(4 133.75)">
<title>include/scanner.h</title>
<!-- Node1 -->
<g id="Node000001" class="node">
<title>Node1</title>
<g id="a_Node000001"><a xlink:title=" ">
<polygon fill="#999999" stroke="#666666" points="158.75,-129.75 67,-129.75 67,-110.5 158.75,-110.5 158.75,-129.75"/>
<text xml:space="preserve" text-anchor="middle" x="112.88" y="-116.25" font-family="Helvetica,sans-Serif" font-size="10.00">include/scanner.h</text>
</a>
</g>
</g>
<!-- Node2 -->
<g id="Node000002" class="node">
<title>Node2</title>
<g id="a_Node000002"><a xlink:href="report_8h.html" target="_top" xlink:title=" ">
<polygon fill="white" stroke="#666666" points="154.25,-74.5 71.5,-74.5 71.5,-55.25 154.25,-55.25 154.25,-74.5"/>
<text xml:space="preserve" text-anchor="middle" x="112.88" y="-61" font-family="Helvetica,sans-Serif" font-size="10.00">include/report.h</text>
</a>
</g>
</g>
<!-- Node1&#45;&gt;Node2 -->
<g id="edge1_Node000001_Node000002" class="edge">
<title>Node1&#45;&gt;Node2</title>
<g id="a_edge1_Node000001_Node000002"><a xlink:title=" ">
<path fill="none" stroke="#63b8ff" d="M112.88,-98.88C112.88,-90.59 112.88,-81.42 112.88,-74.86"/>
<polygon fill="#63b8ff" stroke="#63b8ff" points="109.38,-98.82 112.88,-108.82 116.38,-98.82 109.38,-98.82"/>
</a>
</g>
</g>
<!-- Node3 -->
<g id="Node000003" class="node">
<title>Node3</title>
<g id="a_Node000003"><a xlink:href="main_8c.html" target="_top" xlink:title=" ">
<polygon fill="white" stroke="#666666" points="61.75,-19.25 0,-19.25 0,0 61.75,0 61.75,-19.25"/>
<text xml:space="preserve" text-anchor="middle" x="30.88" y="-5.75" font-family="Helvetica,sans-Serif" font-size="10.00">src/main.c</text>
</a>
</g>
</g>
<!-- Node1&#45;&gt;Node3 -->
<g id="edge5_Node000001_Node000003" class="edge">
<title>Node1&#45;&gt;Node3</title>
<g id="a_edge5_Node000001_Node000003"><a xlink:title=" ">
<path fill="none" stroke="#63b8ff" d="M91.61,-103.2C82.02,-95.3 71.04,-85.17 62.88,-74.5 49.31,-56.77 39,-32.39 34.07,-19.48"/>
<polygon fill="#63b8ff" stroke="#63b8ff" points="89.37,-105.89 99.39,-109.35 93.72,-100.4 89.37,-105.89"/>
</a>
</g>
</g>
<!-- Node5 -->
<g id="Node000005" class="node">
<title>Node5</title>
<g id="a_Node000005"><a xlink:href="scanner_8c.html" target="_top" xlink:title=" ">
<polygon fill="white" stroke="#666666" points="238.12,-19.25 163.62,-19.25 163.62,0 238.12,0 238.12,-19.25"/>
<text xml:space="preserve" text-anchor="middle" x="200.88" y="-5.75" font-family="Helvetica,sans-Serif" font-size="10.00">src/scanner.c</text>
</a>
</g>
</g>
<!-- Node1&#45;&gt;Node5 -->
<g id="edge6_Node000001_Node000005" class="edge">
<title>Node1&#45;&gt;Node5</title>
<g id="a_edge6_Node000001_Node000005"><a xlink:title=" ">
<path fill="none" stroke="#63b8ff" d="M133.8,-102.92C143.31,-94.97 154.33,-84.87 162.88,-74.5 177.65,-56.58 190.43,-32.28 196.72,-19.43"/>
<polygon fill="#63b8ff" stroke="#63b8ff" points="131.68,-100.14 126.11,-109.15 136.09,-105.58 131.68,-100.14"/>
</a>
</g>
</g>
<!-- Node2&#45;&gt;Node3 -->
<g id="edge2_Node000002_Node000003" class="edge">
<title>Node2&#45;&gt;Node3</title>
<g id="a_edge2_Node000002_Node000003"><a xlink:title=" ">
<path fill="none" stroke="#63b8ff" d="M89.67,-48.8C75.22,-39.42 57.13,-27.67 44.85,-19.7"/>
<polygon fill="#63b8ff" stroke="#63b8ff" points="87.4,-51.51 97.7,-54.02 91.21,-45.64 87.4,-51.51"/>
</a>
</g>
</g>
<!-- Node4 -->
<g id="Node000004" class="node">
<title>Node4</title>
<g id="a_Node000004"><a xlink:href="report_8c.html" target="_top" xlink:title=" ">
<polygon fill="white" stroke="#666666" points="145.62,-19.25 80.12,-19.25 80.12,0 145.62,0 145.62,-19.25"/>
<text xml:space="preserve" text-anchor="middle" x="112.88" y="-5.75" font-family="Helvetica,sans-Serif" font-size="10.00">src/report.c</text>
</a>
</g>
</g>
<!-- Node2&#45;&gt;Node4 -->
<g id="edge3_Node000002_Node000004" class="edge">
<title>Node2&#45;&gt;Node4</title>
<g id="a_edge3_Node000002_Node000004"><a xlink:title=" ">
<path fill="none" stroke="#63b8ff" d="M112.88,-43.63C112.88,-35.34 112.88,-26.17 112.88,-19.61"/>
<polygon fill="#63b8ff" stroke="#63b8ff" points="109.38,-43.57 112.88,-53.57 116.38,-43.57 109.38,-43.57"/>
</a>
</g>
</g>
<!-- Node2&#45;&gt;Node5 -->
<g id="edge4_Node000002_Node000005" class="edge">
<title>Node2&#45;&gt;Node5</title>
<g id="a_edge4_Node000002_Node000005"><a xlink:title=" ">
<path fill="none" stroke="#63b8ff" d="M137.34,-49.07C152.91,-39.65 172.58,-27.75 185.87,-19.7"/>
<polygon fill="#63b8ff" stroke="#63b8ff" points="135.84,-45.89 129.1,-54.06 139.47,-51.88 135.84,-45.89"/>
</a>
</g>
</g>
</g>
</svg>
</svg>

<style type='text/css'>
<![CDATA[
[data-mouse-over-selected='false'] { opacity: 0.7; }
[data-mouse-over-selected='true']  { opacity: 1.0; }
]]>
</style>
</svg>
