<?xml version="1.0" encoding="UTF-8" standalone="no"?>
<!DOCTYPE svg PUBLIC "-//W3C//DTD SVG 1.1//EN"
 "http://www.w3.org/Graphics/SVG/1.1/DTD/svg11.dtd">
<!-- Generated by graphviz version 16.1.0 (20260904.0139)
 -->
<!-- Title: notify_file_compressed Pages: 1 -->
<svg width="264pt" height="45pt"
 viewBox="0.00 0.00 264.00 45.00" xmlns="http://www.w3.org/2000/svg" xmlns:xlink="http://www.w3.org/1999/xlink">
<g id="graph0" class="graph" transform="scale(1 1) rotate(0) translate(4 41.25)">
<title>notify_file_compressed</title>
<!-- Node1 -->
<g id="Node000001" class="node">
<title>Node1</title>
<g id="a_Node000001"><a xlink:title=" ">
<polygon fill="#999999" stroke="#666666" points="116.5,-19.25 0,-19.25 0,0 116.5,0 116.5,-19.25"/>
<text xml:space="preserve" text-anchor="middle" x="58.25" y="-5.75" font-family="Helvetica,sans-Serif" font-size="10.00">notify_file_compressed</text>
</a>
</g>
</g>
<!-- Node1&#45;&gt;Node1 -->
<g id="edge1_Node000001_Node000001" class="edge">
<title>Node1&#45;&gt;Node1</title>
<g id="a_edge1_Node000001_Node000001"><a xlink:title=" ">
<path fill="none" stroke="#63b8ff" d="M35.43,-19.54C25.02,-28.15 32.63,-37.25 58.25,-37.25 72.66,-37.25 81.37,-34.37 84.38,-30.32"/>
<polygon fill="#63b8ff" stroke="#63b8ff" points="87.8,-29.51 81.51,-20.98 81.11,-31.57 87.8,-29.51"/>
</a>
</g>
</g>
<!-- Node2 -->
<g id="Node000002" class="node">
<title>Node2</title>
<g id="a_Node000002"><a xlink:href="report_8c.html#acb1cca0af82e6a094263e9f372cdeef6" target="_top" xlink:title=" ">
<polygon fill="white" stroke="#666666" points="255.5,-19.25 152.5,-19.25 152.5,0 255.5,0 255.5,-19.25"/>
<text xml:space="preserve" text-anchor="middle" x="204" y="-5.75" font-family="Helvetica,sans-Serif" font-size="10.00">report_format_bytes</text>
</a>
</g>
</g>
<!-- Node1&#45;&gt;Node2 -->
<g id="edge2_Node000001_Node000002" class="edge">
<title>Node1&#45;&gt;Node2</title>
<g id="a_edge2_Node000001_Node000002"><a xlink:title=" ">
<path fill="none" stroke="#63b8ff" d="M116.89,-9.62C124.76,-9.62 132.87,-9.62 140.82,-9.62"/>
<polygon fill="#63b8ff" stroke="#63b8ff" points="140.79,-13.13 150.79,-9.63 140.79,-6.13 140.79,-13.13"/>
</a>
</g>
</g>
<!-- Node2&#45;&gt;Node2 -->
<g id="edge3_Node000002_Node000002" class="edge">
<title>Node2&#45;&gt;Node2</title>
<g id="a_edge3_Node000002_Node000002"><a xlink:title=" ">
<path fill="none" stroke="#63b8ff" d="M181.18,-19.54C170.77,-28.15 178.38,-37.25 204,-37.25 218.41,-37.25 227.12,-34.37 230.13,-30.32"/>
<polygon fill="#63b8ff" stroke="#63b8ff" points="233.55,-29.51 227.26,-20.98 226.86,-31.57 233.55,-29.51"/>
</a>
</g>
</g>
</g>
</svg>
