<?xml version="1.0" encoding="UTF-8" standalone="no"?>
<!DOCTYPE svg PUBLIC "-//W3C//DTD SVG 1.1//EN"
 "http://www.w3.org/Graphics/SVG/1.1/DTD/svg11.dtd">
<!-- Generated by graphviz version 16.1.0 (20260904.0139)
 -->
<!-- Title: record_file_and_batch_commit Pages: 1 -->
<svg width="506pt" height="127pt"
 viewBox="0.00 0.00 506.00 127.00" xmlns="http://www.w3.org/2000/svg" xmlns:xlink="http://www.w3.org/1999/xlink">
<g id="graph0" class="graph" transform="scale(1 1) rotate(0) translate(4 123.25)">
<title>record_file_and_batch_commit</title>
<!-- Node1 -->
<g id="Node000001" class="node">
<title>Node1</title>
<g id="a_Node000001"><a xlink:title=" ">
<polygon fill="#999999" stroke="#666666" points="111.25,-78.88 0,-78.88 0,-48.38 111.25,-48.38 111.25,-78.88"/>
<text xml:space="preserve" text-anchor="start" x="8" y="-65.38" font-family="Helvetica,sans-Serif" font-size="10.00">record_file_and_batch</text>
<text xml:space="preserve" text-anchor="middle" x="55.62" y="-54.12" font-family="Helvetica,sans-Serif" font-size="10.00">_commit</text>
</a>
</g>
</g>
<!-- Node1&#45;&gt;Node1 -->
<g id="edge12_Node000001_Node000001" class="edge">
<title>Node1&#45;&gt;Node1</title>
<g id="a_edge12_Node000001_Node000001"><a xlink:title=" ">
<path fill="none" stroke="#63b8ff" d="M29.6,-79.36C24.29,-88.43 32.96,-96.88 55.62,-96.88 68.02,-96.88 76.23,-94.35 80.26,-90.58"/>
<polygon fill="#63b8ff" stroke="#63b8ff" points="83.7,-91.22 81.46,-80.86 76.76,-90.35 83.7,-91.22"/>
</a>
</g>
</g>
<!-- Node2 -->
<g id="Node000002" class="node">
<title>Node2</title>
<g id="a_Node000002"><a xlink:href="db_8c.html#a978b66212d676806ff2e1ad22041cc55" target="_top" xlink:title=" ">
<polygon fill="white" stroke="#666666" points="240.88,-101.25 164.12,-101.25 164.12,-82 240.88,-82 240.88,-101.25"/>
<text xml:space="preserve" text-anchor="middle" x="202.5" y="-87.75" font-family="Helvetica,sans-Serif" font-size="10.00">db_upsert_file</text>
</a>
</g>
</g>
<!-- Node1&#45;&gt;Node2 -->
<g id="edge1_Node000001_Node000002" class="edge">
<title>Node1&#45;&gt;Node2</title>
<g id="a_edge1_Node000001_Node000002"><a xlink:title=" ">
<path fill="none" stroke="#63b8ff" d="M111.4,-74.21C124.91,-76.82 139.29,-79.6 152.51,-82.16"/>
<polygon fill="#63b8ff" stroke="#63b8ff" points="151.8,-85.58 162.28,-84.05 153.13,-78.71 151.8,-85.58"/>
</a>
</g>
</g>
<!-- Node3 -->
<g id="Node000003" class="node">
<title>Node3</title>
<g id="a_Node000003"><a xlink:href="scanner_8c.html#a0abdfe409b0d472cb3347b9846f45e08" target="_top" xlink:title=" ">
<polygon fill="white" stroke="#666666" points="257.75,-46.25 147.25,-46.25 147.25,-27 257.75,-27 257.75,-46.25"/>
<text xml:space="preserve" text-anchor="middle" x="202.5" y="-32.75" font-family="Helvetica,sans-Serif" font-size="10.00">finish_database_write</text>
</a>
</g>
</g>
<!-- Node1&#45;&gt;Node3 -->
<g id="edge3_Node000001_Node000003" class="edge">
<title>Node1&#45;&gt;Node3</title>
<g id="a_edge3_Node000001_Node000003"><a xlink:title=" ">
<path fill="none" stroke="#63b8ff" d="M111.4,-53.42C119.55,-51.9 128.02,-50.32 136.36,-48.76"/>
<polygon fill="#63b8ff" stroke="#63b8ff" points="136.93,-52.22 146.12,-46.95 135.65,-45.34 136.93,-52.22"/>
</a>
</g>
</g>
<!-- Node2&#45;&gt;Node2 -->
<g id="edge2_Node000002_Node000002" class="edge">
<title>Node2&#45;&gt;Node2</title>
<g id="a_edge2_Node000002_Node000002"><a xlink:title=" ">
<path fill="none" stroke="#63b8ff" d="M183.2,-101.54C174.4,-110.15 180.83,-119.25 202.5,-119.25 214.35,-119.25 221.64,-116.53 224.38,-112.65"/>
<polygon fill="#63b8ff" stroke="#63b8ff" points="227.81,-111.96 222.14,-103.01 220.99,-113.54 227.81,-111.96"/>
</a>
</g>
</g>
<!-- Node3&#45;&gt;Node3 -->
<g id="edge11_Node000003_Node000003" class="edge">
<title>Node3&#45;&gt;Node3</title>
<g id="a_edge11_Node000003_Node000003"><a xlink:title=" ">
<path fill="none" stroke="#63b8ff" d="M183.2,-46.54C174.4,-55.15 180.83,-64.25 202.5,-64.25 214.35,-64.25 221.64,-61.53 224.38,-57.65"/>
<polygon fill="#63b8ff" stroke="#63b8ff" points="227.81,-56.96 222.14,-48.01 220.99,-58.54 227.81,-56.96"/>
</a>
</g>
</g>
<!-- Node4 -->
<g id="Node000004" class="node">
<title>Node4</title>
<g id="a_Node000004"><a xlink:href="db_8c.html#a13dd72b97d91ed33d85651bb50e64325" target="_top" xlink:title=" ">
<polygon fill="white" stroke="#666666" points="353.25,-74.25 298.25,-74.25 298.25,-55 353.25,-55 353.25,-74.25"/>
<text xml:space="preserve" text-anchor="middle" x="325.75" y="-60.75" font-family="Helvetica,sans-Serif" font-size="10.00">db_begin</text>
</a>
</g>
</g>
<!-- Node3&#45;&gt;Node4 -->
<g id="edge4_Node000003_Node000004" class="edge">
<title>Node3&#45;&gt;Node4</title>
<g id="a_edge4_Node000003_Node000004"><a xlink:title=" ">
<path fill="none" stroke="#63b8ff" d="M247.27,-46.73C260.26,-49.73 274.36,-52.99 286.93,-55.89"/>
<polygon fill="#63b8ff" stroke="#63b8ff" points="285.97,-59.26 296.5,-58.1 287.54,-52.44 285.97,-59.26"/>
</a>
</g>
</g>
<!-- Node6 -->
<g id="Node000006" class="node">
<title>Node6</title>
<g id="a_Node000006"><a xlink:href="db_8c.html#a42f656ceff7a62fb3d042502fab4b42a" target="_top" xlink:title=" ">
<polygon fill="white" stroke="#666666" points="357.75,-19.25 293.75,-19.25 293.75,0 357.75,0 357.75,-19.25"/>
<text xml:space="preserve" text-anchor="middle" x="325.75" y="-5.75" font-family="Helvetica,sans-Serif" font-size="10.00">db_commit</text>
</a>
</g>
</g>
<!-- Node3&#45;&gt;Node6 -->
<g id="edge8_Node000003_Node000006" class="edge">
<title>Node3&#45;&gt;Node6</title>
<g id="a_edge8_Node000003_Node000006"><a xlink:title=" ">
<path fill="none" stroke="#63b8ff" d="M248.65,-26.57C259.74,-24.1 271.58,-21.47 282.53,-19.03"/>
<polygon fill="#63b8ff" stroke="#63b8ff" points="283.07,-22.49 292.07,-16.9 281.55,-15.66 283.07,-22.49"/>
</a>
</g>
</g>
<!-- Node4&#45;&gt;Node4 -->
<g id="edge5_Node000004_Node000004" class="edge">
<title>Node4&#45;&gt;Node4</title>
<g id="a_edge5_Node000004_Node000004"><a xlink:title=" ">
<path fill="none" stroke="#63b8ff" d="M306.98,-74.54C298.42,-83.15 304.68,-92.25 325.75,-92.25 337.27,-92.25 344.37,-89.53 347.03,-85.65"/>
<polygon fill="#63b8ff" stroke="#63b8ff" points="350.47,-85 344.85,-76.01 343.64,-86.54 350.47,-85"/>
</a>
</g>
</g>
<!-- Node5 -->
<g id="Node000005" class="node">
<title>Node5</title>
<g id="a_Node000005"><a xlink:href="db_8c.html#a8615305ac04bba54aecc7f3f80733e56" target="_top" xlink:title=" ">
<polygon fill="white" stroke="#666666" points="497.5,-51.88 393.75,-51.88 393.75,-21.38 497.5,-21.38 497.5,-51.88"/>
<text xml:space="preserve" text-anchor="start" x="401.75" y="-38.38" font-family="Helvetica,sans-Serif" font-size="10.00">execute_transaction</text>
<text xml:space="preserve" text-anchor="middle" x="445.62" y="-27.12" font-family="Helvetica,sans-Serif" font-size="10.00">_statement</text>
</a>
</g>
</g>
<!-- Node4&#45;&gt;Node5 -->
<g id="edge6_Node000004_Node000005" class="edge">
<title>Node4&#45;&gt;Node5</title>
<g id="a_edge6_Node000004_Node000005"><a xlink:title=" ">
<path fill="none" stroke="#63b8ff" d="M353.5,-58.27C362.18,-56.21 372.2,-53.83 382.36,-51.42"/>
<polygon fill="#63b8ff" stroke="#63b8ff" points="382.98,-54.87 391.9,-49.15 381.36,-48.06 382.98,-54.87"/>
</a>
</g>
</g>
<!-- Node5&#45;&gt;Node5 -->
<g id="edge7_Node000005_Node000005" class="edge">
<title>Node5&#45;&gt;Node5</title>
<g id="a_edge7_Node000005_Node000005"><a xlink:title=" ">
<path fill="none" stroke="#63b8ff" d="M424.38,-52.36C420.05,-61.43 427.13,-69.88 445.62,-69.88 455.74,-69.88 462.44,-67.35 465.73,-63.58"/>
<polygon fill="#63b8ff" stroke="#63b8ff" points="469.19,-64.17 466.71,-53.87 462.22,-63.46 469.19,-64.17"/>
</a>
</g>
</g>
<!-- Node6&#45;&gt;Node5 -->
<g id="edge10_Node000006_Node000005" class="edge">
<title>Node6&#45;&gt;Node5</title>
<g id="a_edge10_Node000006_Node000005"><a xlink:title=" ">
<path fill="none" stroke="#63b8ff" d="M358.03,-16.79C365.62,-18.53 374,-20.45 382.46,-22.39"/>
<polygon fill="#63b8ff" stroke="#63b8ff" points="381.58,-25.78 392.11,-24.6 383.15,-18.95 381.58,-25.78"/>
</a>
</g>
</g>
<!-- Node6&#45;&gt;Node6 -->
<g id="edge9_Node000006_Node000006" class="edge">
<title>Node6&#45;&gt;Node6</title>
<g id="a_edge9_Node000006_Node000006"><a xlink:title=" ">
<path fill="none" stroke="#63b8ff" d="M306.98,-19.54C298.42,-28.15 304.68,-37.25 325.75,-37.25 337.27,-37.25 344.37,-34.53 347.03,-30.65"/>
<polygon fill="#63b8ff" stroke="#63b8ff" points="350.47,-30 344.85,-21.01 343.64,-31.54 350.47,-30"/>
</a>
</g>
</g>
</g>
</svg>
